<?xml version="1.0" encoding="UTF-8" standalone="no"?>
<svg
   xmlns:dc="http://purl.org/dc/elements/1.1/"
   xmlns:cc="http://creativecommons.org/ns#"
   xmlns:rdf="http://www.w3.org/1999/02/22-rdf-syntax-ns#"
   xmlns:svg="http://www.w3.org/2000/svg"
   xmlns="http://www.w3.org/2000/svg"
   
   version="1.1"
   viewBox="0 0 98.362526 51.880531"
   height="51.880531mm"
   width="98.362526mm">
  <defs
     >
    <clipPath
       clipPathUnits="userSpaceOnUse"
       >
      <path
         d="M 62.334,473.442 H 252.348 V 58.166 H 62.334 Z"
          />
    </clipPath>
    <clipPath
       clipPathUnits="userSpaceOnUse"
       >
      <path
         d="m 303.846,473.442 h 243.09 V 58.166 h -243.09 z"
          />
    </clipPath>
    <clipPath
       clipPathUnits="userSpaceOnUse"
       >
      <path
         d="m 513.232,811.379 h 51.024 v -51.022 h -51.024 z"
          />
    </clipPath>
  </defs>
  <metadata
     >
    <rdf:RDF>
      <cc:Work
         rdf:about="">
        <dc:format>image/svg+xml</dc:format>
        <dc:type
           rdf:resource="http://purl.org/dc/dcmitype/StillImage" />
        <dc:title></dc:title>
      </cc:Work>
    </rdf:RDF>
  </metadata>
  <g
     transform="translate(-58.461943,-44.852738)"
     >
    <g
       transform="translate(-70.681548,-145.52083)"
       >
      <g
         
         transform="matrix(0.35277777,0,0,-0.35277777,178.28842,221.83939)">
        <path
           d="M 0,0 C 16.749,0 30.42,13.672 30.42,30.427 30.42,47.182 16.749,60.848 0,60.848 -16.761,60.848 -30.427,47.182 -30.427,30.427 -30.427,13.672 -16.761,0 0,0"
           style="fill:#ed1c24;fill-opacity:1;fill-rule:nonzero;stroke:none"
            />
      </g>
      <g
         
         transform="matrix(0.35277777,0,0,-0.35277777,178.27713,221.42946)">
        <path
           d="M 0,0 C 16.126,0 29.289,13.159 29.289,29.297 29.289,45.425 16.126,58.583 0,58.583 -16.132,58.583 -29.295,45.425 -29.295,29.297 -29.295,13.159 -16.132,0 0,0"
           style="fill:#ffffff;fill-opacity:1;fill-rule:nonzero;stroke:none"
            />
      </g>
      <g
         
         transform="matrix(0.35277777,0,0,-0.35277777,178.31735,220.59656)">
        <path
           d="M 0,0 C 14.878,0 27.012,12.135 27.012,27.012 27.012,41.89 14.878,54.025 0,54.025 -14.883,54.025 -27.017,41.89 -27.017,27.012 -27.017,12.135 -14.883,0 0,0"
           style="fill:#ed1c24;fill-opacity:1;fill-rule:nonzero;stroke:none"
            />
      </g>
      <g
         
         transform="matrix(0.35277777,0,0,-0.35277777,185.18205,208.10082)">
        <path
           d="m 0,0 -5.312,0.004 0.007,12.381 -4.579,-0.008 V -2.127 c -0.416,0.647 -0.906,1.259 -1.488,1.828 -0.995,0.975 -2.099,1.716 -3.299,2.207 -1.207,0.492 -2.515,0.742 -3.918,0.742 -1.386,0 -2.672,-0.25 -3.856,-0.735 -1.184,-0.494 -2.273,-1.218 -3.263,-2.186 -1.022,-1.007 -1.807,-2.148 -2.349,-3.424 -0.541,-1.272 -0.806,-2.614 -0.806,-4.015 0,-2.082 0.487,-3.929 1.439,-5.55 l -3.569,-4.297 -0.009,6.381 -4.802,-0.002 0.015,-16.607 4.63,0.013 -0.008,5.519 c 0.401,-0.054 0.384,0.006 0.449,-0.098 2.836,-4.387 6.482,-6.617 10.43,-7.638 8.012,-2.072 16.384,3.77 16.697,12.384 -0.065,8.233 -5.588,9.744 -16.283,15.24 -2.12,-0.567 -5.008,-3.291 -3.793,-7.548 4.113,-1.657 8.923,-3.685 11.309,-6.479 0.004,-0.003 0.004,-0.008 0.004,-0.011 0.451,-0.408 0.881,-1.384 1,-1.978 0.006,-0.029 0.018,-0.118 0.025,-0.152 0.018,-0.08 0.033,-0.18 0.037,-0.215 0.007,-0.087 0.016,-0.156 0.018,-0.246 0,-0.052 0.007,-0.027 0.007,-0.081 -0.004,-0.046 0.009,-0.095 0.006,-0.143 -0.002,-0.28 -0.006,-0.557 -0.055,-0.849 -0.817,-4.917 -9.397,-10.431 -16.068,1.769 l 2.093,2.452 c 1.851,-1.636 4.073,-2.462 6.67,-2.462 1.511,0 2.91,0.287 4.204,0.861 0.42,0.183 0.82,0.41 1.215,0.652 -0.939,1.022 -2.408,2.129 -3.763,2.874 -0.539,-0.161 -1.099,-0.27 -1.704,-0.27 -1.731,0 -3.187,0.617 -4.367,1.838 -1.179,1.229 -1.769,2.754 -1.769,4.555 0,0.91 0.206,1.797 0.606,2.662 0.407,0.866 0.964,1.602 1.673,2.198 0.541,0.453 1.13,0.799 1.769,1.039 0.631,0.232 1.298,0.35 1.985,0.35 1.681,0 3.126,-0.611 4.328,-1.834 0.433,-0.443 0.76,-0.93 1.038,-1.434 1.503,-0.777 3.888,-1.953 5.124,-2.893 0,0.015 0,-0.015 0,0 0,1.439 -0.26,2.781 -0.779,4.031 -0.068,0.166 -0.154,0.325 -0.23,0.486 l 9.259,-0.005 z m -29.478,-5.72 c 0.499,3.851 3.458,6.324 4.243,6.917 -0.269,0.977 -0.463,2.299 -0.347,3.178 0.545,4.123 4.234,5.655 7.978,4.989 2.566,-0.46 4.978,-2.201 6.819,-4.215 0.023,-0.026 0.045,-0.041 0.067,-0.065 l -0.011,6.144 c -8.363,5.996 -16.735,3.6 -20.519,-1.707 -2.233,-3.133 -2.635,-7.417 -1.2,-11.345 0.521,-1.444 1.501,-2.832 2.97,-3.896"
           style="fill:#ffffff;fill-opacity:1;fill-rule:nonzero;stroke:none"
            />
      </g>
      <g
         
         transform="matrix(0.35277777,0,0,-0.35277777,141.95901,227.05274)">
        <path
           d="m 0,0 c -0.48,2.24 -1.62,3.16 -2.98,3.16 -1.421,0 -2.301,-0.899 -2.301,-2.22 0,-1.46 1.48,-2.18 2.781,-2.7 L -1.9,-2 c 1.88,-0.761 3.481,-1.881 3.481,-4.182 0,-2.16 -1.261,-4.24 -5.122,-4.26 -1.34,0 -3.2,0.32 -4.181,1.22 l -0.259,3.441 h 0.7 c 0.679,-2.401 2.1,-3.821 3.74,-3.821 1.5,0 2.481,0.821 2.481,2.38 0,1.441 -1.001,2.281 -2.38,2.841 l -0.441,0.18 c -1.9,0.74 -3.901,1.881 -3.901,4.201 0,2.301 1.581,4.001 4.862,4.001 1.22,0 2.68,-0.28 3.6,-0.88 L 0.68,0"
           style="fill:#231f20;fill-opacity:1;fill-rule:nonzero;stroke:none"
            />
      </g>
      <g
         
         transform="matrix(0.35277777,0,0,-0.35277777,145.63496,228.90165)">
        <path
           d="M 0,0 C 0,2.7 -0.679,4.302 -2.24,4.302 -3.781,4.302 -4.461,2.7 -4.461,0 c 0,-2.7 0.68,-4.301 2.221,-4.301 C -0.679,-4.301 0,-2.7 0,0 m -7.261,0 c 0,3.221 1.54,5.142 5.021,5.142 3.5,0 5.041,-1.921 5.041,-5.142 0,-3.221 -1.541,-5.142 -5.041,-5.142 -3.481,0 -5.021,1.921 -5.021,5.142"
           style="fill:#231f20;fill-opacity:1;fill-rule:nonzero;stroke:none"
            />
      </g>
      <g
         
         transform="matrix(0.35277777,0,0,-0.35277777,147.51844,226.19196)">
        <path
           d="m 0,0 c 0,0.78 -0.14,0.921 -0.54,0.98 l -0.72,0.121 v 0.64 l 3.74,0.52 0.141,-0.12 v -9.402 h 0.04 c 0.9,1.34 1.9,2.76 2.86,3.901 0.36,0.46 0.701,0.58 1.181,0.58 h 2.62 v -0.6 c -0.78,-0.141 -1.5,-0.4 -2.08,-0.801 -0.66,-0.46 -1.801,-1.541 -2.421,-2.201 0.98,-1.5 2.281,-3.14 3.601,-4.58 0.56,-0.621 1,-0.881 1.4,-1.041 v -0.58 h -1.7 c -1.181,0 -1.92,0.261 -2.661,1.101 -0.72,0.82 -2,2.56 -2.8,3.981 h -0.04 v -3.342 c 0,-0.899 0.14,-0.979 1.38,-1.039 v -0.701 H -1.38 v 0.701 c 1.24,0.06 1.38,0.14 1.38,1.039"
           style="fill:#231f20;fill-opacity:1;fill-rule:nonzero;stroke:none"
            />
      </g>
      <g
         
         transform="matrix(0.35277777,0,0,-0.35277777,153.71357,228.90165)">
        <path
           d="M 0,0 C 0,2.7 -0.68,4.302 -2.24,4.302 -3.781,4.302 -4.461,2.7 -4.461,0 c 0,-2.7 0.68,-4.301 2.221,-4.301 C -0.68,-4.301 0,-2.7 0,0 m -7.261,0 c 0,3.221 1.54,5.142 5.021,5.142 3.5,0 5.041,-1.921 5.041,-5.142 0,-3.221 -1.541,-5.142 -5.041,-5.142 -3.481,0 -5.021,1.921 -5.021,5.142"
           style="fill:#231f20;fill-opacity:1;fill-rule:nonzero;stroke:none"
            />
      </g>
      <g
         
         transform="matrix(0.35277777,0,0,-0.35277777,156.52133,230.01678)">
        <path
           d="M 0,0 C 0,-0.899 0.14,-0.979 1.38,-1.039 V -1.74 h -5.381 v 0.701 c 1.24,0.06 1.38,0.14 1.38,1.039 v 10.843 c 0,0.78 -0.14,0.921 -0.54,0.98 l -0.72,0.12 v 0.641 L -0.14,13.104 0,12.983"
           style="fill:#231f20;fill-opacity:1;fill-rule:nonzero;stroke:none"
            />
      </g>
      <g
         
         transform="matrix(0.35277777,0,0,-0.35277777,159.54146,228.23137)">
        <path
           d="m 0,0 c -0.3,1.421 -1.14,2.401 -2.24,2.401 -0.901,0 -1.461,-0.56 -1.481,-1.32 0,-0.941 1.02,-1.381 2.061,-1.741 1.92,-0.681 3,-1.5 3,-3.241 0,-1.94 -1.52,-3.141 -3.961,-3.141 -1.14,0 -2.58,0.281 -3.3,0.941 l -0.22,2.88 h 0.68 c 0.48,-1.68 1.48,-2.98 2.92,-2.98 0.941,0 1.541,0.52 1.541,1.38 0,1.08 -1.061,1.64 -1.98,1.961 -1.701,0.58 -3.041,1.44 -3.041,3.02 0,1.981 1.5,3.081 3.841,3.081 1,0 2.1,-0.2 2.86,-0.68 L 0.68,0"
           style="fill:#231f20;fill-opacity:1;fill-rule:nonzero;stroke:none"
            />
      </g>
      <g
         
         transform="matrix(0.35277777,0,0,-0.35277777,160.84638,226.19196)">
        <path
           d="m 0,0 c 0,0.78 -0.14,0.921 -0.54,0.98 l -0.72,0.121 v 0.64 l 3.74,0.52 0.141,-0.12 v -9.402 h 0.04 c 0.9,1.34 1.9,2.76 2.86,3.901 0.36,0.46 0.701,0.58 1.181,0.58 h 2.62 v -0.6 c -0.78,-0.141 -1.5,-0.4 -2.08,-0.801 -0.66,-0.46 -1.801,-1.541 -2.421,-2.201 0.98,-1.5 2.281,-3.14 3.601,-4.58 0.56,-0.621 1,-0.881 1.4,-1.041 v -0.58 h -1.7 c -1.181,0 -1.92,0.261 -2.661,1.101 -0.72,0.82 -2,2.56 -2.8,3.981 h -0.04 v -3.342 c 0,-0.899 0.14,-0.979 1.38,-1.039 v -0.701 H -1.38 v 0.701 c 1.24,0.06 1.38,0.14 1.38,1.039"
           style="fill:#231f20;fill-opacity:1;fill-rule:nonzero;stroke:none"
            />
      </g>
      <g
         
         transform="matrix(0.35277777,0,0,-0.35277777,165.50305,226.72819)">
        <path
           d="m 0,0 2.701,2.761 c 0.7,0.719 1.04,0.94 1.42,0.94 0.4,0 0.96,-0.62 0.96,-1.08 0,-0.48 -0.6,-0.86 -1.28,-1.24 L 0.36,-0.539 Z M 3.021,-5.461 C 2.561,-5.701 1.8,-5.961 1.061,-6.32 0.26,-6.701 -0.1,-7.141 -0.1,-8.102 c 0,-1.12 0.66,-1.82 1.6,-1.82 0.621,0 1.501,0.34 1.521,1.601 z m 4.261,-5.241 c -0.7,-0.3 -1.821,-0.601 -2.741,-0.601 -0.88,0 -1.2,0.522 -1.48,1.182 -0.68,-0.461 -1.641,-1.182 -2.861,-1.182 -1.96,0 -3,1.362 -3,2.881 0,1.121 0.5,1.961 2.1,2.481 1.32,0.42 2.781,0.84 3.721,1.38 v 1.04 c 0,1.3 -0.7,1.662 -1.34,1.662 -0.66,0 -1.361,-0.362 -1.881,-1.981 -0.14,-0.441 -0.36,-0.721 -0.78,-0.721 -0.44,0 -1.52,0.34 -1.52,1.141 0,1.24 1.78,2.4 4.46,2.4 3.341,0 3.602,-1.6 3.602,-2.84 v -4.601 c 0,-1.221 0.359,-1.501 0.66,-1.581 0.299,-0.079 0.699,-0.1 0.98,-0.06"
           style="fill:#231f20;fill-opacity:1;fill-rule:nonzero;stroke:none"
            />
      </g>
      <g
         
         transform="matrix(0.35277777,0,0,-0.35277777,170.30753,225.40104)">
        <path
           d="m 0,0 2.34,-1.761 c 0.261,-0.18 0.52,-0.341 0.721,-0.341 0.2,0 0.439,0.161 0.7,0.341 L 6.101,0 6.541,-0.5 3.881,-3.621 c -0.28,-0.301 -0.561,-0.561 -0.82,-0.561 -0.281,0 -0.54,0.241 -0.841,0.561 L -0.44,-0.5 Z m 7.241,-11.443 -0.24,-3.401 H -1.9 l -0.221,0.38 c 2.041,2.86 4.021,5.722 5.982,8.603 H 2.08 c -1.98,0 -2.26,-0.66 -2.601,-2.381 H -1.24 v 3.221 h 8.161 l 0.2,-0.361 c -2.02,-2.88 -4.02,-5.761 -5.941,-8.622 h 2.16 c 2.141,0 2.701,0.58 3.181,2.561"
           style="fill:#231f20;fill-opacity:1;fill-rule:nonzero;stroke:none"
            />
      </g>
      <g
         
         transform="matrix(0.35277777,0,0,-0.35277777,175.82568,230.22845)">
        <path
           d="m 0,0 c -0.72,-0.38 -1.88,-1.381 -3.581,-1.381 -1.46,0 -2.88,0.681 -2.88,3.002 v 5.021 c 0,0.76 -0.14,0.899 -0.54,0.96 l -0.721,0.099 v 0.641 l 3.741,0.56 0.14,-0.12 V 2.24 C -3.841,0.68 -3.101,0 -2.061,0 -1.14,0 -0.44,0.54 -0.16,1.16 -0.04,1.42 0,1.9 0,2.32 v 4.322 c 0,0.76 -0.14,0.899 -0.54,0.96 l -0.72,0.099 v 0.641 l 3.74,0.56 0.141,-0.12 V 0.6 c 0,-0.9 0.14,-0.98 1.36,-1.039 V -1.141 H 0.18"
           style="fill:#231f20;fill-opacity:1;fill-rule:nonzero;stroke:none"
            />
      </g>
      <g
         
         transform="matrix(0.35277777,0,0,-0.35277777,178.8451,229.54406)">
        <path
           d="m 0,0 c 0,-0.42 0.02,-0.88 0.1,-1.2 0.22,-0.801 0.86,-1.28 1.8,-1.28 1.661,0 2.361,1.581 2.361,4.241 0,3.26 -1.3,3.82 -2.2,3.82 C 1.141,5.581 0.52,5.121 0.18,4.321 0.06,4.001 0,3.641 0,3.2 Z m -3.981,-6.981 c 1.221,0.06 1.36,0.14 1.36,1.04 V 4.701 c 0,0.761 -0.139,0.92 -0.54,0.96 l -0.72,0.1 v 0.64 L -0.32,6.962 0,5.542 c 0.9,0.659 1.921,1.42 3.341,1.42 2.501,0 3.721,-2.221 3.721,-4.881 0,-2.141 -0.6,-3.541 -1.561,-4.342 -0.96,-0.8 -2.24,-1.06 -3.58,-1.06 -0.7,0 -1.521,0.16 -1.921,0.341 v -2.961 c 0,-0.9 0.16,-0.98 1.7,-1.04 v -0.701 h -5.681"
           style="fill:#231f20;fill-opacity:1;fill-rule:nonzero;stroke:none"
            />
      </g>
      <g
         
         transform="matrix(0.35277777,0,0,-0.35277777,183.97449,228.65471)">
        <path
           d="m 0,0 c -0.46,-0.24 -1.22,-0.5 -1.96,-0.859 -0.801,-0.381 -1.16,-0.821 -1.16,-1.782 0,-1.12 0.66,-1.82 1.599,-1.82 0.621,0 1.501,0.34 1.521,1.601 z m 4.261,-5.241 c -0.7,-0.3 -1.821,-0.601 -2.74,-0.601 -0.88,0 -1.201,0.522 -1.481,1.182 -0.68,-0.461 -1.64,-1.182 -2.86,-1.182 -1.96,0 -3.001,1.362 -3.001,2.881 0,1.121 0.5,1.961 2.1,2.481 C -2.4,-0.061 -0.94,0.36 0,0.9 V 1.94 C 0,3.24 -0.7,3.602 -1.34,3.602 -2,3.602 -2.7,3.24 -3.221,1.621 -3.36,1.18 -3.58,0.9 -4.001,0.9 c -0.439,0 -1.52,0.34 -1.52,1.141 0,1.24 1.781,2.4 4.461,2.4 3.34,0 3.601,-1.6 3.601,-2.84 V -3 c 0,-1.221 0.36,-1.501 0.66,-1.581 0.3,-0.079 0.7,-0.1 0.98,-0.06"
           style="fill:#231f20;fill-opacity:1;fill-rule:nonzero;stroke:none"
            />
      </g>
      <g
         
         transform="matrix(0.35277777,0,0,-0.35277777,188.7511,229.84745)">
        <path
           d="m 0,0 c 0,-1.08 0.399,-1.38 1.62,-1.38 1.481,0 2.78,0.64 2.801,2.901 0,1.84 -1.081,3.2 -3.261,3.2 H 0 Z m 1.1,5.562 c 1.98,0 2.921,0.979 2.94,2.64 C 4.061,9.883 3.021,10.783 1.319,10.783 0.279,10.763 0,10.683 0,9.942 V 5.562 Z M -4.422,-1.52 c 1.541,0.081 1.661,0.14 1.661,1.2 V 9.723 c 0,1.06 -0.12,1.12 -1.661,1.199 v 0.701 H 1.86 c 1.58,0.02 2.84,-0.2 3.681,-0.74 0.86,-0.541 1.32,-1.361 1.32,-2.541 0,-1.6 -1.041,-2.68 -2.961,-3.08 V 5.221 c 1.881,-0.28 3.541,-1.36 3.541,-3.62 0,-1.201 -0.38,-2.162 -1.22,-2.822 -0.84,-0.639 -2.16,-1 -4.121,-1 h -6.522"
           style="fill:#231f20;fill-opacity:1;fill-rule:nonzero;stroke:none"
            />
      </g>
      <g
         
         transform="matrix(0.35277777,0,0,-0.35277777,193.97927,228.65471)">
        <path
           d="m 0,0 c -0.46,-0.24 -1.22,-0.5 -1.96,-0.859 -0.801,-0.381 -1.16,-0.821 -1.16,-1.782 0,-1.12 0.66,-1.82 1.599,-1.82 0.621,0 1.501,0.34 1.521,1.601 z m 4.261,-5.241 c -0.7,-0.3 -1.821,-0.601 -2.74,-0.601 -0.88,0 -1.201,0.522 -1.481,1.182 -0.68,-0.461 -1.64,-1.182 -2.86,-1.182 -1.961,0 -3.001,1.362 -3.001,2.881 0,1.121 0.5,1.961 2.1,2.481 C -2.4,-0.061 -0.939,0.36 0,0.9 V 1.94 C 0,3.24 -0.7,3.602 -1.34,3.602 -2,3.602 -2.7,3.24 -3.221,1.621 -3.36,1.18 -3.58,0.9 -4.001,0.9 c -0.439,0 -1.52,0.34 -1.52,1.141 0,1.24 1.781,2.4 4.461,2.4 3.34,0 3.601,-1.6 3.601,-2.84 V -3 c 0,-1.221 0.359,-1.501 0.66,-1.581 0.3,-0.079 0.7,-0.1 0.981,-0.06"
           style="fill:#231f20;fill-opacity:1;fill-rule:nonzero;stroke:none"
            />
      </g>
      <g
         
         transform="matrix(0.35277777,0,0,-0.35277777,195.63697,230.38367)">
        <path
           d="m 0,0 c 1.22,0.06 1.359,0.14 1.359,1.039 v 6.042 c 0,0.761 -0.139,0.92 -0.54,0.96 L 0.1,8.141 v 0.64 L 3.7,9.342 3.94,7.641 c 1.221,1.201 1.861,1.701 2.641,1.701 0.84,0 1.24,-0.541 1.24,-1.221 0,-0.359 -0.08,-0.74 -0.28,-1.019 C 7.321,6.841 7.021,6.661 6.681,6.661 6.401,6.661 6.161,6.781 5.94,6.9 5.461,7.182 5.141,7.341 4.82,7.341 4.341,7.341 3.98,6.861 3.98,5.641 V 1.039 C 3.98,0.14 4.141,0.08 5.761,0 V -0.701 H 0"
           style="fill:#231f20;fill-opacity:1;fill-rule:nonzero;stroke:none"
            />
      </g>
      <g
         
         transform="matrix(0.35277777,0,0,-0.35277777,199.67381,226.72819)">
        <path
           d="m 0,0 2.701,2.761 c 0.699,0.719 1.04,0.94 1.42,0.94 0.4,0 0.96,-0.62 0.96,-1.08 0,-0.48 -0.6,-0.86 -1.28,-1.24 L 0.36,-0.539 Z M 3.021,-5.461 C 2.561,-5.701 1.801,-5.961 1.061,-6.32 0.26,-6.701 -0.1,-7.141 -0.1,-8.102 c 0,-1.12 0.661,-1.82 1.6,-1.82 0.62,0 1.501,0.34 1.521,1.601 z m 4.26,-5.241 c -0.7,-0.3 -1.82,-0.601 -2.74,-0.601 -0.88,0 -1.2,0.522 -1.48,1.182 -0.68,-0.461 -1.64,-1.182 -2.861,-1.182 -1.961,0 -3.001,1.362 -3.001,2.881 0,1.121 0.5,1.961 2.101,2.481 1.32,0.42 2.781,0.84 3.721,1.38 v 1.04 c 0,1.3 -0.701,1.662 -1.34,1.662 -0.66,0 -1.361,-0.362 -1.881,-1.981 -0.14,-0.441 -0.36,-0.721 -0.78,-0.721 -0.44,0 -1.52,0.34 -1.52,1.141 0,1.24 1.78,2.4 4.461,2.4 3.34,0 3.601,-1.6 3.601,-2.84 v -4.601 c 0,-1.221 0.359,-1.501 0.66,-1.581 0.299,-0.079 0.7,-0.1 0.98,-0.06"
           style="fill:#231f20;fill-opacity:1;fill-rule:nonzero;stroke:none"
            />
      </g>
      <g
         
         transform="matrix(0.35277777,0,0,-0.35277777,202.82059,226.19196)">
        <path
           d="m 0,0 c 0,0.78 -0.141,0.921 -0.54,0.98 l -0.721,0.121 v 0.64 l 3.741,0.52 0.14,-0.12 v -9.402 h 0.04 c 0.901,1.34 1.901,2.76 2.861,3.901 0.36,0.46 0.7,0.58 1.18,0.58 h 2.62 v -0.6 c -0.78,-0.141 -1.5,-0.4 -2.08,-0.801 -0.66,-0.46 -1.801,-1.541 -2.421,-2.201 0.981,-1.5 2.282,-3.14 3.602,-4.58 0.559,-0.621 1,-0.881 1.399,-1.041 v -0.58 h -1.7 c -1.18,0 -1.92,0.261 -2.66,1.101 -0.721,0.82 -2.001,2.56 -2.801,3.981 H 2.62 v -3.342 c 0,-0.899 0.14,-0.979 1.381,-1.039 v -0.701 h -5.382 v 0.701 c 1.24,0.06 1.381,0.14 1.381,1.039"
           style="fill:#231f20;fill-opacity:1;fill-rule:nonzero;stroke:none"
            />
      </g>
      <g
         
         transform="matrix(0.35277777,0,0,-0.35277777,209.01572,228.90165)">
        <path
           d="m 0,0 c 0,2.7 -0.681,4.302 -2.241,4.302 -1.54,0 -2.22,-1.602 -2.22,-4.302 0,-2.7 0.68,-4.301 2.22,-4.301 C -0.681,-4.301 0,-2.7 0,0 m -7.262,0 c 0,3.221 1.54,5.142 5.021,5.142 3.501,0 5.042,-1.921 5.042,-5.142 0,-3.221 -1.541,-5.142 -5.042,-5.142 -3.481,0 -5.021,1.921 -5.021,5.142"
           style="fill:#231f20;fill-opacity:1;fill-rule:nonzero;stroke:none"
            />
      </g>
      <g
         
         transform="matrix(0.35277777,0,0,-0.35277777,211.05477,229.11367)">
        <path
           d="m 0,0 c -0.479,1.341 -0.939,2.621 -1.46,3.922 -0.28,0.68 -0.52,0.82 -1.36,0.88 v 0.7 h 5.021 v -0.7 L 1.4,4.701 C 1.021,4.662 0.98,4.502 1.101,4.121 1.24,3.741 2.021,1.48 2.161,1.081 l 1.06,-3.041 h 0.06 l 1.14,3.301 c 0.36,1.02 0.66,1.98 0.86,2.741 0.101,0.359 0.04,0.58 -0.319,0.619 l -0.9,0.101 v 0.7 h 4.02 v -0.7 C 7.222,4.762 7.002,4.642 6.682,3.941 6.361,3.241 5.781,1.98 5.222,0.461 L 3.481,-4.301 h -1.92"
           style="fill:#231f20;fill-opacity:1;fill-rule:nonzero;stroke:none"
            />
      </g>
      <g
         
         transform="matrix(0.35277777,0,0,-0.35277777,216.00283,228.65471)">
        <path
           d="m 0,0 c -0.46,-0.24 -1.22,-0.5 -1.96,-0.859 -0.801,-0.381 -1.16,-0.821 -1.16,-1.782 0,-1.12 0.66,-1.82 1.599,-1.82 0.621,0 1.501,0.34 1.521,1.601 z m 4.261,-5.241 c -0.7,-0.3 -1.821,-0.601 -2.74,-0.601 -0.88,0 -1.201,0.522 -1.481,1.182 -0.68,-0.461 -1.64,-1.182 -2.86,-1.182 -1.96,0 -3.001,1.362 -3.001,2.881 0,1.121 0.5,1.961 2.1,2.481 C -2.4,-0.061 -0.94,0.36 0,0.9 V 1.94 C 0,3.24 -0.7,3.602 -1.34,3.602 -2,3.602 -2.7,3.24 -3.221,1.621 -3.36,1.18 -3.58,0.9 -4.001,0.9 c -0.439,0 -1.52,0.34 -1.52,1.141 0,1.24 1.781,2.4 4.461,2.4 3.34,0 3.601,-1.6 3.601,-2.84 V -3 c 0,-1.221 0.36,-1.501 0.66,-1.581 0.3,-0.079 0.7,-0.1 0.98,-0.06"
           style="fill:#231f20;fill-opacity:1;fill-rule:nonzero;stroke:none"
            />
      </g>
    </g>
  </g>
</svg>
