<?xml version="1.0" encoding="UTF-8" standalone="no"?>
<svg width="55.848mm" height="9.144mm" version="1.1" viewBox="0 0 55.848 9.144" xmlns="http://www.w3.org/2000/svg"><g transform="translate(-3.8306 -172.16)"><g fill="#e40521" stroke-width=".26458px" aria-label="činovníci"><g stroke-width=".070004px" aria-label="Všestrannost"><g stroke-width=".018522px" aria-label="vzdělavatelé"><path d="m5.5769 181.3-1.7462-7.366h1.5875l0.43392 2.0108c0.13758 0.62441 0.34925 1.7145 0.48683 2.9633h0.0635c0.13758-1.2488 0.34925-2.3389 0.48683-2.9633l0.43392-2.0108h1.5875l-1.7462 7.366z"/><path d="m9.4398 175.42v-1.4817h3.9158v1.4817l-2.2225 4.4026h2.2966v1.4817h-4.0957v-1.4817l2.2225-4.4026z"/><path d="m16.806 173.94c1.5452 0 2.2119 0.85725 2.2119 2.286v2.794c0 1.4287-0.66675 2.286-2.2119 2.286h-2.5294v-7.366zm-0.94191 1.4817v4.4026h1.1536c0.30692 0 0.41275-0.15875 0.41275-0.48683v-3.429c0-0.32809-0.10583-0.48683-0.41275-0.48683z"/><path d="m21.103 173.51-1.2171-1.3547h1.4076l0.508 0.4445 0.51858-0.4445h1.4076l-1.2171 1.3547zm2.4236 3.3232v1.4817h-1.9685v1.5028h2.0743v1.4817h-3.6618v-7.366h3.6618v1.4817h-2.0743v1.4182z"/><path d="m26.172 179.82h1.7568v1.4817h-3.3443v-7.366h1.5875z"/><path d="m30.162 180.13-0.22225 1.1748h-1.5875l1.7462-7.366h1.5875l1.7462 7.366h-1.5875l-0.22225-1.1748zm1.1853-1.4817c-0.14817-0.77258-0.32808-1.6192-0.42333-2.3177h-0.0635c-0.09525 0.6985-0.27517 1.5452-0.42333 2.3177z"/><path d="m34.755 181.3-1.7462-7.366h1.5875l0.43392 2.0108c0.13758 0.62441 0.34925 1.7145 0.48683 2.9633h0.0635c0.13758-1.2488 0.34925-2.3389 0.48683-2.9633l0.43392-2.0108h1.5875l-1.7462 7.366z"/><path d="m39.475 180.13-0.22225 1.1748h-1.5875l1.7462-7.366h1.5875l1.7462 7.366h-1.5875l-0.22225-1.1748zm1.1853-1.4817c-0.14817-0.77258-0.32808-1.6192-0.42333-2.3177h-0.0635c-0.09525 0.6985-0.27517 1.5452-0.42333 2.3177z"/><path d="m43.708 181.3v-5.8843h-1.1747v-1.4817h3.937v1.4817h-1.1747v5.8843z"/><path d="m50.767 176.84v1.4817h-1.9685v1.5028h2.0743v1.4817h-3.6618v-7.366h3.6618v1.4817h-2.0743v1.4182z"/><path d="m53.413 179.82h1.7568v1.4817h-3.3443v-7.366h1.5875z"/><path d="m59.16 172.16-1.0689 1.3547h-1.3335l0.81491-1.3547zm0.41275 4.6778v1.4817h-1.9685v1.5028h2.0743v1.4817h-3.6618v-7.366h3.6618v1.4817h-2.0743v1.4182z"/></g></g></g></g></svg>
