<?xml version="1.0" encoding="UTF-8" standalone="no"?>
<svg
   xmlns:dc="http://purl.org/dc/elements/1.1/"
   xmlns:cc="http://creativecommons.org/ns#"
   xmlns:rdf="http://www.w3.org/1999/02/22-rdf-syntax-ns#"
   xmlns:svg="http://www.w3.org/2000/svg"
   xmlns="http://www.w3.org/2000/svg"
   id="svg5834"
   version="1.1"
   viewBox="0 0 120.00005 57.937572"
   height="57.937572mm"
   width="120.00005mm">
  <defs
     id="defs5828">
    <clipPath
       clipPathUnits="userSpaceOnUse"
       id="clipPath5852">
      <path
         d="M 0,425.197 H 566.929 V 0 H 0 Z"
         id="path5850" />
    </clipPath>
    <clipPath
       clipPathUnits="userSpaceOnUse"
       id="clipPath5872">
      <path
         d="M 0,425.197 H 566.929 V 0 H 0 Z"
         id="path5870" />
    </clipPath>
  </defs>
  <metadata
     id="metadata5831">
    <rdf:RDF>
      <cc:Work
         rdf:about="">
        <dc:format>image/svg+xml</dc:format>
        <dc:type
           rdf:resource="http://purl.org/dc/dcmitype/StillImage" />
        <dc:title></dc:title>
      </cc:Work>
    </rdf:RDF>
  </metadata>
  <g
     transform="translate(-54.148783,-118.35264)"
     id="layer1">
    <g
       id="g5844"
       transform="matrix(0.35277777,0,0,-0.35277777,14.308802,222.14631)">
      <g
         id="g5846">
        <g
           id="g5848"
           clip-path="url(#clipPath5852)">
          <g
             id="g5854"
             transform="translate(282.894,294.2178)">
            <path
               d="m 0,0 c 92.703,0.128 163.07,-24.573 169.618,-64.348 8.299,-50.372 -74.015,-99.881 -167.991,-99.881 -0.065,0 -0.13,-0.003 -0.194,-0.003 -93.891,0.036 -177.455,47.237 -171.049,99.884 C -165.19,-27.969 -86.926,-0.12 0,0"
               style="fill:#ffffff;fill-opacity:1;fill-rule:evenodd;stroke:none"
               id="path5856" />
          </g>
          <g
             id="g5858"
             transform="translate(125.6489,229.3213)">
            <path
               d="M 0,0 C 2.274,19.655 22.594,36.24 52.739,47.723 17.855,36.325 -5.918,19.403 -8.273,0 -12.694,-36.43 26.813,-70.194 82.741,-86.848 31.654,-69.312 -4.111,-35.538 0,0"
               style="fill:#ed1c24;fill-opacity:1;fill-rule:nonzero;stroke:none"
               id="path5860" />
          </g>
          <g
             id="g5862"
             transform="translate(448.4199,229.3213)">
            <path
               d="M 0,0 C -3.672,22.354 -27.901,39.84 -65.007,50.651 -32.682,39.48 -11.651,22.133 -8.168,0 -2.773,-34.271 -38.237,-68.931 -89.572,-86.854 -33.389,-69.821 5.771,-35.126 0,0"
               style="fill:#ed1c24;fill-opacity:1;fill-rule:nonzero;stroke:none"
               id="path5864" />
          </g>
        </g>
      </g>
      <g
         id="g5866">
        <g
           id="g5868"
           clip-path="url(#clipPath5872)">
          <g
             id="g5874"
             transform="translate(196.0054,198.3145)">
            <path
               d="m 0,0 v 23.828 c 0,2.394 -0.878,4.734 -4.123,4.734 -1.596,0 -2.474,-0.312 -3.404,-0.691 V 0 h -8.038 v 32.164 c 2.78,1.524 6.7,2.531 11.649,2.531 8.813,0 11.962,-4.609 11.962,-10.803 L 8.046,0 Z"
               style="fill:#2e3192;fill-opacity:1;fill-rule:nonzero;stroke:none"
               id="path5876" />
          </g>
          <g
             id="g5878"
             transform="translate(225.5625,226.8765)">
            <path
               d="m 0,0 c -0.665,0.261 -1.389,0.381 -2.213,0.381 -4.432,0 -6.138,-4.678 -6.138,-11.691 0,-7.396 1.807,-11.624 5.879,-11.624 1.083,0 1.908,0.121 2.472,0.5 z m -2.628,-29.196 c -8.399,0 -13.661,6.071 -13.661,17.448 0,10.929 5.055,17.631 12.22,17.631 1.65,0 3.041,-0.258 4.069,-0.574 v 12.233 h 7.997 v -44.208 c -2.53,-1.648 -5.827,-2.53 -10.625,-2.53"
               style="fill:#2e3192;fill-opacity:1;fill-rule:nonzero;stroke:none"
               id="path5880" />
          </g>
          <g
             id="g5882"
             transform="translate(254.3271,225.9297)">
            <path
               d="m 0,0 c -1.956,1.015 -4.02,0.947 -5.363,0.19 v -27.805 h -8.039 V 4.549 c 3.093,1.84 7.423,2.852 14.899,2.409 z"
               style="fill:#2e3192;fill-opacity:1;fill-rule:nonzero;stroke:none"
               id="path5884" />
          </g>
          <g
             id="g5886"
             transform="translate(272.4453,235.8555)">
            <path
               d="m 0,0 h -4.385 l 3.506,9.099 C 1.49,10.87 5.878,10.997 6.647,8.85 Z m 1.337,-19.656 c -4.844,-0.569 -7.991,-1.959 -7.991,-7.399 0,-3.98 1.858,-5.688 5.051,-5.688 1.189,0 2.22,0.255 2.94,0.695 z m -3.351,-18.519 c -8.043,0 -12.165,3.665 -12.165,10.739 0,8.785 7.163,11.384 15.516,12.331 v 1.582 c 0,3.531 -1.957,4.544 -4.899,4.544 -2.68,0 -5.41,-1.073 -7.218,-2.084 l -1.749,5.627 c 1.96,1.011 5.568,2.59 10.463,2.59 6.289,0 10.93,-3.223 10.93,-12.454 v -20.345 c -2.32,-1.52 -6.088,-2.53 -10.878,-2.53"
               style="fill:#2e3192;fill-opacity:1;fill-rule:nonzero;stroke:none"
               id="path5888" />
          </g>
          <g
             id="g5890"
             transform="translate(299.0928,236.6768)">
            <path
               d="m 0,0 c -0.673,-0.821 -1.542,-1.203 -2.373,-1.203 -0.877,0 -1.75,0.382 -2.367,1.203 L -10.157,6.7 -8.044,9.039 -2.373,4.106 3.249,9.039 5.413,6.7 Z m -3.919,-38.933 c -3.404,0 -6.439,1.071 -8.146,2.467 l 2.065,6.248 c 1.026,-1.003 2.937,-1.955 4.946,-1.955 2.06,0 3.456,1.58 3.456,3.729 0,2.277 -0.982,3.539 -3.557,4.801 -5.104,2.469 -6.238,5.941 -6.238,9.489 0,5.812 3.708,10.487 9.273,10.487 3.464,0 5.837,-0.824 7.995,-2.464 l -1.957,-5.626 c -0.827,0.821 -2.425,1.769 -4.227,1.769 -2.114,0 -3.196,-1.578 -3.196,-3.541 0,-2.274 1.385,-3.539 3.559,-4.667 5.359,-2.789 6.592,-6.012 6.592,-9.996 0,-5.936 -3.967,-10.741 -10.565,-10.741"
               style="fill:#2e3192;fill-opacity:1;fill-rule:nonzero;stroke:none"
               id="path5892" />
          </g>
          <g
             id="g5894"
             transform="translate(322.1035,226.8765)">
            <path
               d="m 0,0 c -3.556,0 -4.275,-5.311 -4.275,-11.374 0,-6.133 0.773,-11.124 4.275,-11.124 3.563,0 4.28,4.991 4.28,11.124 C 4.28,-5.311 3.563,0 0,0 m 0,-29.196 c -8.043,0 -12.271,7.519 -12.271,17.694 0,10.176 4.228,17.635 12.22,17.635 8.094,0 12.321,-7.459 12.321,-17.635 0,-10.175 -4.227,-17.694 -12.27,-17.694"
               style="fill:#2e3192;fill-opacity:1;fill-rule:nonzero;stroke:none"
               id="path5896" />
          </g>
          <g
             id="g5898"
             transform="translate(162.4268,231.7153)">
            <path
               d="m 0,0 c -3.815,0 -4.589,-6.157 -4.589,-13.188 0,-7.111 0.829,-12.897 4.589,-12.897 3.821,0 4.591,5.786 4.591,12.897 C 4.591,-6.157 3.821,0 0,0 m 0,-33.853 c -8.629,0 -13.164,8.72 -13.164,20.518 0,11.8 4.535,20.448 13.109,20.448 8.685,0 13.222,-8.648 13.222,-20.448 C 13.167,-25.133 8.63,-33.853 0,-33.853"
               style="fill:#2e3192;fill-opacity:1;fill-rule:nonzero;stroke:none"
               id="path5900" />
          </g>
          <g
             id="g5902"
             transform="translate(353.3174,198.3145)">
            <path
               d="m 0,0 h -7.78 l -8.922,34.064 h 8.504 l 3.972,-19.597 c 0.513,-2.65 0.617,-5.179 0.617,-5.179 h 0.103 c 0,0 0.157,2.459 0.719,5.179 l 4.076,19.597 h 7.53 z"
               style="fill:#2e3192;fill-opacity:1;fill-rule:nonzero;stroke:none"
               id="path5904" />
          </g>
          <g
             id="g5906"
             transform="translate(382.209,198.3145)">
            <path
               d="M 0,0 -7.991,17.188 H -8.095 V 0 h -7.993 v 34.111 h 7.993 V 19.023 h 0.104 l 7.782,15.041 H 7.833 L -0.882,18.769 9.019,0 Z"
               style="fill:#2e3192;fill-opacity:1;fill-rule:nonzero;stroke:none"
               id="path5908" />
          </g>
          <g
             id="g5910"
             transform="translate(407.3545,216.1997)">
            <path
               d="m 0,0 c -4.847,-0.569 -7.987,-1.959 -7.987,-7.399 0,-3.98 1.85,-5.688 5.047,-5.688 1.191,0 2.218,0.254 2.94,0.695 z m -3.349,-18.519 c -8.044,0 -12.17,3.665 -12.17,10.739 0,8.784 7.165,11.384 15.519,12.33 v 1.582 c 0,3.532 -1.954,4.545 -4.9,4.545 -2.677,0 -5.413,-1.073 -7.217,-2.085 l -1.751,5.628 c 1.961,1.011 5.573,2.59 10.463,2.59 6.292,0 10.927,-3.223 10.927,-12.455 v -20.344 c -2.313,-1.52 -6.078,-2.53 -10.871,-2.53"
               style="fill:#2e3192;fill-opacity:1;fill-rule:nonzero;stroke:none"
               id="path5912" />
          </g>
        </g>
      </g>
    </g>
  </g>
</svg>
