<?xml version="1.0" encoding="UTF-8"?>
<!-- Created with Inkscape (http://www.inkscape.org/) -->
<svg width="74.166mm" height="95.296mm" version="1.1" viewBox="0 0 74.166 95.296" xmlns="http://www.w3.org/2000/svg" xmlns:cc="http://creativecommons.org/ns#" xmlns:dc="http://purl.org/dc/elements/1.1/" xmlns:rdf="http://www.w3.org/1999/02/22-rdf-syntax-ns#"><defs><clipPath ><path d="M 0,79.37 H 79.369 V 0 H 0 Z"/></clipPath></defs><metadata><rdf:RDF><cc:Work rdf:about=""><dc:format>image/svg+xml</dc:format><dc:type rdf:resource="http://purl.org/dc/dcmitype/StillImage"/><dc:title/></cc:Work></rdf:RDF></metadata><g transform="translate(-22.744 -133.42)"><g transform="translate(-43.858 96.567)" style="fill:#000000" aria-label="ŽUPA BARÁKOVA"><path d="m87.893 94.03-2.1734-2.419h2.5135l.90714.79375.92604-.79375h2.5135l-2.1734 2.419zm-2.2112 3.4018v-2.6458h6.9925v2.6458l-3.9687 7.8619h4.101v2.6458h-7.3138v-2.6458l3.9687-7.8619z" style="fill:#ffffff;font-feature-settings:normal;font-variant-caps:normal;font-variant-ligatures:normal;font-variant-numeric:normal;stroke-width:1.0124px"/><path d="m96.969 94.786v9.8274c0 .58587.18899.86935.73705.86935h1.2284c.54806 0 .73705-.28348.73705-.86935v-9.8274h2.8348v9.2604c0 2.5513-1.1906 4.0821-3.9498 4.0821h-.47247c-2.7592 0-3.9498-1.5308-3.9498-4.0821v-9.2604z" style="fill:#ffffff;font-feature-settings:normal;font-variant-caps:normal;font-variant-ligatures:normal;font-variant-numeric:normal;stroke-width:1.0124px"/><path d="m107.05 107.94h-2.8348v-13.154h4.4223c2.7592 0 3.9498 1.5308 3.9498 4.0821v1.0961c0 2.5513-1.1906 4.0821-3.9498 4.0821h-1.5875zm0-6.539h1.9655c.54807 0 .73705-.28348.73705-.86934v-2.2301c0-.58586-.18898-.86934-.73705-.86934h-1.9655z" style="fill:#ffffff;font-feature-settings:normal;font-variant-caps:normal;font-variant-ligatures:normal;font-variant-numeric:normal;stroke-width:1.0124px"/><path d="m115.66 105.84-.39687 2.0978h-2.8348l3.1183-13.154h2.8348l3.1183 13.154h-2.8348l-.39688-2.0978zm2.1167-2.6458c-.26458-1.3796-.58586-2.8915-.75595-4.1388h-.11339c-.17009 1.2473-.49137 2.7592-.75595 4.1388z" style="fill:#ffffff;font-feature-settings:normal;font-variant-caps:normal;font-variant-ligatures:normal;font-variant-numeric:normal;stroke-width:1.0124px"/><path d="m73.614 125.29c1.304.64256 1.5497 1.8899 1.5497 2.8915v.45357c0 2.1734-1.1906 3.3262-3.9498 3.3262h-4.6113v-13.154h4.4223c2.7592 0 3.9498 1.1528 3.9498 3.3262v.52917c0 .86934-.18899 2.0222-1.3607 2.6269zm-4.1766-1.115h1.9655c.54806 0 .73705-.28348.73705-.86934v-.98274c0-.58586-.18899-.86934-.73705-.86934h-1.9655zm0 2.4946v2.6458h2.1545c.54806 0 .73705-.28348.73705-.86935v-.90714c0-.58586-.18899-.86934-.73705-.86934z" style="fill:#ffffff;font-feature-settings:normal;font-variant-caps:normal;font-variant-ligatures:normal;font-variant-numeric:normal;stroke-width:1.0124px"/><path d="m78.971 129.86-.39687 2.0978h-2.8348l3.1183-13.154h2.8348l3.1183 13.154h-2.8348l-.39688-2.0978zm2.1167-2.6458c-.26458-1.3796-.58586-2.8915-.75595-4.1388h-.11339c-.17009 1.2473-.49137 2.7592-.75595 4.1388z" style="fill:#ffffff;font-feature-settings:normal;font-variant-caps:normal;font-variant-ligatures:normal;font-variant-numeric:normal;stroke-width:1.0124px"/><path d="m94.505 131.96-1.7765-4.8381c1.0961-.66146 1.5875-1.871 1.5875-3.5152v-.71816c0-2.5513-1.1906-4.0821-3.9498-4.0821h-4.4223v13.154h2.8348v-4.2711h1.304l1.493 4.2711zm-5.7263-10.508h1.9655c.54806 0 .73705.28348.73705.86934v1.8521c0 .58586-.18899.86934-.73705.86934h-1.9655z" style="fill:#ffffff;font-feature-settings:normal;font-variant-caps:normal;font-variant-ligatures:normal;font-variant-numeric:normal;stroke-width:1.0124px"/><path d="m102.34 115.63-1.9088 2.419h-2.3812l1.4552-2.419zm-4.0254 14.231-.39687 2.0978h-2.8348l3.1183-13.154h2.8348l3.1183 13.154h-2.8348l-.39687-2.0978zm2.1167-2.6458c-.26459-1.3796-.58586-2.8915-.75595-4.1388h-.11339c-.17009 1.2473-.49137 2.7592-.75595 4.1388z" style="fill:#ffffff;font-feature-settings:normal;font-variant-caps:normal;font-variant-ligatures:normal;font-variant-numeric:normal;stroke-width:1.0124px"/><path d="m111.11 131.96h2.9293l-2.9104-6.8414 2.5324-6.3122h-2.9293l-2.0411 5.0838h-.56696v-5.0838h-2.8348v13.154h2.8348v-5.424h.68036z" style="fill:#ffffff;font-feature-settings:normal;font-variant-caps:normal;font-variant-ligatures:normal;font-variant-numeric:normal;stroke-width:1.0124px"/><path d="m114.44 122.7c0-2.5513 1.1906-4.0821 3.9498-4.0821h.47247c2.7592 0 3.9498 1.5308 3.9498 4.0821v5.3672c0 2.5513-1.1906 4.0821-3.9498 4.0821h-.47247c-2.7592 0-3.9498-1.5308-3.9498-4.0821zm5.5373-.56697c0-.58586-.18899-.86934-.73705-.86934h-1.2284c-.54807 0-.73706.28348-.73706.86934v6.5012c0 .58586.18899.86934.73706.86934h1.2284c.54806 0 .73705-.28348.73705-.86934z" style="fill:#ffffff;font-feature-settings:normal;font-variant-caps:normal;font-variant-ligatures:normal;font-variant-numeric:normal;stroke-width:1.0124px"/><path d="m126.51 131.96-3.1183-13.154h2.8348l.77485 3.5908c.24569 1.115.62366 3.0616.86935 5.2917h.11339c.24568-2.23.62366-4.1766.86934-5.2917l.77485-3.5908h2.8348l-3.1183 13.154z" style="fill:#ffffff;font-feature-settings:normal;font-variant-caps:normal;font-variant-ligatures:normal;font-variant-numeric:normal;stroke-width:1.0124px"/><path d="m134.93 129.86-.39687 2.0978h-2.8348l3.1183-13.154h2.8348l3.1183 13.154h-2.8348l-.39687-2.0978zm2.1167-2.6458c-.26459-1.3796-.58586-2.8915-.75595-4.1388h-.1134c-.17009 1.2473-.49136 2.7592-.75595 4.1388z" style="fill:#ffffff;font-feature-settings:normal;font-variant-caps:normal;font-variant-ligatures:normal;font-variant-numeric:normal;stroke-width:1.0124px"/></g><g transform="matrix(.86134 0 0 -.86134 25.645 192.02)"><g clip-path="url(#clipPath896)"><g transform="translate(39.688 11.338)"><path d="m0 0c15.604 0 28.344 12.738 28.344 28.35 0 15.61-12.74 28.343-28.344 28.343-15.616 0-28.349-12.733-28.349-28.343 0-15.612 12.733-28.35 28.349-28.35" style="fill:#e40521"/></g><g transform="translate(29.075 43.212)"><path d="m0 0c-1.67 1.931-2.813 4.295-2.813 7.29 0 6.428 5.832 10.815 12.681 10.815 3.099 0 5.861-1.095 8.019-2.783v-5.812c-2.051 2.299-4.708 3.374-7.274 3.374-3.211 0-5.967-1.92-5.967-4.849 0-.637.107-1.201.299-1.711-2.395-1.398-4.195-3.654-4.945-6.324m19.542 1.695c.725-1.34 1.137-2.862 1.137-4.476 0-.142-.005-.282-.011-.424-1.472 1.247-3.268 2.478-5.416 3.713-1.02 1.615-2.749 2.679-4.639 2.679-2.993 0-5.589-2.672-5.589-5.968s2.596-5.968 5.589-5.968c.257 0 .51.021.759.059 1.523-.833 2.902-1.695 3.886-2.694-1.39-.698-2.969-1.095-4.645-1.095-1.835 0-3.553.476-5.035 1.302l-2.665-2.546c2.002-3.378 5.431-5.973 8.932-5.973 3.305 0 5.849 1.685 5.855 4.979.008 4.766-6.065 6.705-11.268 9.758-.304.663-.475 1.403-.475 2.178 0 2.461 1.734 4.577 3.926 4.969 1.353-.662 2.849-1.332 4.333-2.162 8.163-4.565 10.943-8.756 10.943-13.624 0-7.325-6.303-11.406-12.643-11.406-5.822 0-11.019 4.103-13.092 8.864v-5.291h-4.475v14.915h4.475v-4.858l3.041 2.903c-1.204 1.598-1.917 3.564-1.917 5.69 0 5.356 4.507 9.698 10.065 9.698 3.387 0 6.381-1.615 8.206-4.085v13.782h4.476v-11.19h5.218v-3.729zm-8.929-30.585c-14.007 0-25.362 11.355-25.362 25.363 0 14.007 11.355 25.362 25.362 25.362s25.363-11.355 25.363-25.362c0-14.008-11.356-25.363-25.363-25.363m0 52.217c-14.831 0-26.853-12.023-26.853-26.854 0-14.832 12.022-26.855 26.853-26.855s26.855 12.023 26.855 26.855c0 14.831-12.024 26.854-26.855 26.854" style="fill:#ffffff"/></g></g></g></g></svg>
