<?xml version="1.0" encoding="UTF-8"?>
<!-- Created with Inkscape (http://www.inkscape.org/) -->
<svg width="48.547mm" height="22.2mm" version="1.1" viewBox="0 0 48.547 22.2" xmlns="http://www.w3.org/2000/svg" xmlns:cc="http://creativecommons.org/ns#" xmlns:dc="http://purl.org/dc/elements/1.1/" xmlns:rdf="http://www.w3.org/1999/02/22-rdf-syntax-ns#">
 <metadata>
  <rdf:RDF>
   <cc:Work rdf:about="">
    <dc:format>image/svg+xml</dc:format>
    <dc:type rdf:resource="http://purl.org/dc/dcmitype/StillImage"/>
    <dc:title/>
   </cc:Work>
  </rdf:RDF>
 </metadata>
 <g transform="translate(-86.095 -133.95)">
  <g fill="#e40521" stroke-width=".26458px" aria-label="ŽUPA">
   <path d="m87.365 133.95 2.921 3.2512h-1.27l-2.921-3.2512zm5.461 3.2512h-1.27l-2.921-3.2512h1.27l1.016 1.0668 1.016-1.0668h1.27l-1.651 1.8288 0.635 0.7112 2.286-2.54h1.27zm-6.3246 1.016h9.398v1.143h-9.398zm9.5758 14.122v1.143h-9.8298v-1.143l5.334-10.566h-5.08v-1.143h9.398v1.143l-5.334 10.566zm-6.7818 0 5.334-10.566h-1.778l-5.334 10.566zm-3.048 2.413h9.8298v1.143h-9.8298z"/>
   <path d="m109.11 138.22v12.446c0 3.429-1.6002 5.4864-5.3086 5.4864h-0.635c-3.7084 0-5.3086-2.0574-5.3086-5.4864v-12.446h1.27v12.446c0 2.8194 0.9398 4.3434 4.0386 4.3434h0.635c3.0988 0 4.0386-1.524 4.0386-4.3434v-12.446zm-2.54 13.208c0 1.4224-0.4572 2.3114-2.2606 2.3114h-1.651c-1.8034 0-2.2606-0.889-2.2606-2.3114v-13.208h1.27v13.208c0 0.7874 0.254 1.1684 0.9906 1.1684h1.651c0.7366 0 0.9906-0.381 0.9906-1.1684v-13.208h1.27z"/>
   <path d="m115.22 155.9h-1.27v-5.2324h-1.27v5.2324h-1.27v-6.3754h5.9436c3.0988 0 4.0386-1.524 4.0386-4.3434v-1.4732c0-2.8194-0.9398-4.3434-4.0386-4.3434h-5.9436v-1.143h5.9436c3.7084 0 5.3086 2.0574 5.3086 5.4864v1.4732c0 3.429-1.6002 5.4864-5.3086 5.4864h-2.1336zm-3.81-15.265h6.4516c1.8034 0 2.2606 0.889 2.2606 2.3114v2.9972c0 1.4224-0.4572 2.3114-2.2606 2.3114h-6.4516zm2.54 1.143h-1.27v5.334h1.27zm1.27 5.334h2.6416c0.7366 0 0.9906-0.381 0.9906-1.1684v-2.9972c0-0.7874-0.254-1.1684-0.9906-1.1684h-2.6416z"/>
   <path d="m130.6 149.52h1.27l-2.6924-11.303h1.27l2.9464 12.446h-9.7028l2.9464-12.446h1.27zm-5.3848 0h1.27l1.4224-5.9436-0.635-2.6924zm2.54 0h1.5748l-0.7874-3.302zm-0.8382 3.556-0.6604 2.8194h-1.27l0.6604-2.8194h-1.27l-0.6604 2.8194h-1.27l0.9398-3.9624h10.312l0.9398 3.9624h-1.27l-0.6604-2.8194h-1.27l0.6604 2.8194h-1.27l-0.6604-2.8194z"/>
  </g>
 </g>
</svg>
