<?xml version="1.0" encoding="UTF-8"?>
<!-- Created with Inkscape (http://www.inkscape.org/) -->
<svg width="81.726mm" height="22.2mm" version="1.1" viewBox="0 0 81.726 22.2" xmlns="http://www.w3.org/2000/svg" xmlns:cc="http://creativecommons.org/ns#" xmlns:dc="http://purl.org/dc/elements/1.1/" xmlns:rdf="http://www.w3.org/1999/02/22-rdf-syntax-ns#">
 <metadata>
  <rdf:RDF>
   <cc:Work rdf:about="">
    <dc:format>image/svg+xml</dc:format>
    <dc:type rdf:resource="http://purl.org/dc/dcmitype/StillImage"/>
    <dc:title/>
   </cc:Work>
  </rdf:RDF>
 </metadata>
 <g transform="translate(-61.955 -129.96)">
  <g fill="#ff1d23" stroke-width=".26458px" aria-label="       ÚSTŘEDÍ">
   <path d="m68.305 129.96-1.9558 3.2512h-1.27l1.9558-3.2512zm2.54 0-1.9558 3.2512h-1.27l1.9558-3.2512zm2.3622 4.2672v12.446c0 3.429-1.6002 5.4864-5.3086 5.4864h-0.635c-3.7084 0-5.3086-2.0574-5.3086-5.4864v-12.446h1.27v12.446c0 2.8194 0.9398 4.3434 4.0386 4.3434h0.635c3.0988 0 4.0386-1.524 4.0386-4.3434v-12.446zm-2.54 13.208c0 1.4224-0.4572 2.3114-2.2606 2.3114h-1.651c-1.8034 0-2.2606-0.889-2.2606-2.3114v-13.208h1.27v13.208c0 0.7874 0.254 1.1684 0.9906 1.1684h1.651c0.7366 0 0.9906-0.381 0.9906-1.1684v-13.208h1.27z"/>
   <path d="m83.962 147.43c0 1.4224-0.4572 2.3114-2.2606 2.3114h-1.524c-1.8034 0-2.2606-0.889-2.2606-2.3114v-1.4478h1.27v1.4478c0 0.7874 0.254 1.1684 0.9906 1.1684h1.524c0.7366 0 0.9906-0.381 0.9906-1.1684v-0.9906c0-2.3876-7.4422-0.8382-7.4422-6.7564v-0.4826c0-3.175 1.6002-5.2324 5.3086-5.2324h0.508c3.7084 0 5.3086 1.8034 5.3086 5.2324v0.9398h-1.27v-0.9398c0-2.8194-0.9398-4.0894-4.0386-4.0894h-0.508c-3.0988 0-4.0386 1.524-4.0386 4.0894v0.4826c0 5.1562 7.4422 2.8448 7.4422 6.7564zm-6.1722-8.7376c0-1.4224 0.4572-2.3114 2.2606-2.3114h1.524c1.8034 0 2.2606 0.889 2.2606 2.3114v1.4478h-1.27v-1.4478c0-0.7874-0.254-1.1684-0.9906-1.1684h-1.524c-0.7366 0-0.9906 0.381-0.9906 1.1684v0.9906c0 2.3622 7.4422 0.8382 7.4422 6.7564v0.4826c0 3.175-1.6002 5.2324-5.3086 5.2324h-0.508c-3.7084 0-5.3086-1.8034-5.3086-5.2324v-0.9398h1.27v0.9398c0 2.8194 0.9398 4.0894 4.0386 4.0894h0.508c3.0988 0 4.0386-1.524 4.0386-4.0894v-0.4826c0-5.1562-7.4422-2.8448-7.4422-6.7564z"/>
   <path d="m87.541 134.22h9.4488v1.143h-9.4488zm0 2.413h9.4488v1.143h-2.8194v14.122h-1.27v-14.122h-1.27v14.122h-1.27v-14.122h-2.8194z"/>
   <path d="m99.964 129.96 2.921 3.2512h-1.27l-2.921-3.2512zm5.461 3.2512h-1.27l-2.921-3.2512h1.27l1.016 1.0668 1.016-1.0668h1.27l-1.651 1.8288 0.635 0.7112 2.286-2.54h1.27zm4.8514 18.694h-1.27l-2.2098-6.0198c-0.381 0.1016-0.7874 0.1778-1.2192 0.2286l2.032 5.7912h-1.27l-2.0066-5.7404h-1.7526v5.7404h-1.27v-5.7404h-1.27v5.7404h-1.27v-6.8834h5.9436c3.0988 0 4.0386-1.524 4.0386-4.3434v-0.9652c0-2.8194-0.9398-4.3434-4.0386-4.3434h-5.9436v-1.143h5.9436c3.7084 0 5.3086 2.0574 5.3086 5.4864v0.9652c0 2.2098-0.6604 3.8354-2.1336 4.7244zm-11.506-15.265h6.4516c1.8034 0 2.2606 0.889 2.2606 2.3114v2.4892c0 1.4224-0.4572 2.3114-2.2606 2.3114h-6.4516zm1.27 5.969h1.27v-4.826h-1.27zm2.54 0h2.6416c0.7366 0 0.9906-0.381 0.9906-1.1684v-2.4892c0-0.7874-0.254-1.1684-0.9906-1.1684h-2.6416z"/>
   <path d="m112.07 134.22h8.7884v1.143h-8.7884zm0 2.413h8.7884v1.143h-4.9784v3.4036h4.7244v1.143h-8.5344zm1.27 4.5466h1.27v-3.4036h-1.27zm-1.27 2.413h8.5344v1.143h-4.7244v3.6068h4.9784v1.143h-8.7884zm1.27 4.7498h1.27v-3.6068h-1.27zm-1.27 2.413h8.7884v1.143h-8.7884z"/>
   <path d="m123.13 150.76h6.0706c3.0988 0 4.0386-1.524 4.0386-4.3434v-6.7056c0-2.8194-0.9398-4.3434-4.0386-4.3434h-6.0706v-1.143h6.0706c3.7084 0 5.3086 2.0574 5.3086 5.4864v6.7056c0 3.429-1.6002 5.4864-5.3086 5.4864h-6.0706zm0-14.122h6.5786c1.8034 0 2.2606 0.889 2.2606 2.3114v8.2296c0 1.4224-0.4572 2.3114-2.2606 2.3114h-6.5786zm1.27 1.143v10.566h1.27v-10.566zm2.54 10.566h2.7686c0.7366 0 0.9906-0.381 0.9906-1.1684v-8.2296c0-0.7874-0.254-1.1684-0.9906-1.1684h-2.7686z"/>
   <path d="m140.58 129.96-1.9558 3.2512h-1.27l1.9558-3.2512zm2.54 0-1.9558 3.2512h-1.27l1.9558-3.2512zm-7.112 4.2672h7.6708v1.143h-7.6708zm0 2.413h7.6708v1.143h-1.9304v10.566h1.9304v1.143h-7.6708v-1.143h1.9304v-10.566h-1.9304zm3.2004 11.709h1.27v-10.566h-1.27zm-3.2004 2.413h7.6708v1.143h-7.6708z"/>
  </g>
 </g>
</svg>
