<?xml version="1.0" encoding="UTF-8"?>
<!-- Created with Inkscape (http://www.inkscape.org/) -->
<svg width="5.8832cm" height="5.883cm" version="1.1" viewBox="0 0 58.832 58.83" xmlns="http://www.w3.org/2000/svg" xmlns:cc="http://creativecommons.org/ns#" xmlns:dc="http://purl.org/dc/elements/1.1/" xmlns:rdf="http://www.w3.org/1999/02/22-rdf-syntax-ns#">
 <defs>
  <clipPath >
   <path d="M 0,841.89 H 595.276 V 0 H 0 Z"/>
  </clipPath>
 </defs>
 <metadata>
  <rdf:RDF>
   <cc:Work rdf:about="">
    <dc:format>image/svg+xml</dc:format>
    <dc:type rdf:resource="http://purl.org/dc/dcmitype/StillImage"/>
    <dc:title/>
   </cc:Work>
  </rdf:RDF>
 </metadata>
 <g transform="translate(-76.418 -119.42)">
  <g transform="matrix(.35278 0 0 -.35278 .92283 357.1)" clip-path="url(#clipPath3729)">
   <g transform="translate(297.39 521.15)" fill="#ee1d23">
    <path d="m0 0c38.1 0 69.204 31.1 69.204 69.215s-31.104 69.202-69.204 69.202c-38.128 0-69.216-31.087-69.216-69.202s31.088-69.215 69.216-69.215" fill="#ee1d23"/>
   </g>
   <g transform="translate(297.32 523.79)">
    <path d="m0 0c36.685 0 66.628 29.932 66.628 66.643 0 36.688-29.943 66.62-66.628 66.62-36.698 0-66.643-29.932-66.643-66.62 0-36.711 29.945-66.643 66.643-66.643" fill="#fff"/>
   </g>
   <g transform="translate(297.58 529.16)" fill="#ee1d23">
    <path d="m0 0c33.844 0 61.448 27.604 61.448 61.448 0 33.845-27.604 61.449-61.448 61.449-33.857 0-61.459-27.604-61.459-61.449 0-33.844 27.602-61.448 61.459-61.448" fill="#ee1d23"/>
   </g>
   <g transform="translate(341.84 609.73)">
    <path d="m0 0-12.086 0.01 0.018 28.163-10.418-0.016v-32.994c-0.948 1.47-2.063 2.864-3.385 4.158-2.264 2.218-4.774 3.903-7.506 5.022-2.744 1.119-5.721 1.685-8.912 1.685-3.152 0-6.078-0.566-8.772-1.673-2.694-1.121-5.171-2.77-7.423-4.971-2.326-2.291-4.111-4.886-5.342-7.789-1.232-2.893-1.834-5.946-1.834-9.133 0-4.737 1.106-8.938 3.273-12.626l-8.119-9.775-0.022 14.516-10.923-4e-3 0.035-37.778 10.533 0.028-0.02 12.555c0.913-0.122 0.874 0.014 1.022-0.221 6.453-9.981 14.745-15.053 23.728-17.376 18.227-4.714 37.268 8.577 37.979 28.171-0.144 18.729-12.707 22.166-37.037 34.668-4.824-1.29-11.394-7.485-8.631-17.169 9.358-3.77 20.299-8.383 25.727-14.739 8e-3 -6e-3 8e-3 -0.02 0.01-0.026 1.023-0.927 2.003-3.148 2.271-4.499 0.016-0.066 0.047-0.268 0.059-0.348 0.043-0.182 0.078-0.406 0.084-0.486 0.015-0.198 0.039-0.357 0.043-0.56 0-0.119 0.015-0.062 0.015-0.185-6e-3 -0.106 0.022-0.215 0.014-0.324-6e-3 -0.639-0.016-1.268-0.125-1.933-1.86-11.185-21.378-23.729-36.552 4.025l4.763 5.578c4.207-3.724 9.264-5.601 15.172-5.601 3.435 0 6.621 0.652 9.562 1.957 0.957 0.419 1.869 0.933 2.762 1.485-2.133 2.324-5.475 4.844-8.557 6.538-1.226-0.368-2.502-0.616-3.877-0.616-3.94 0-7.25 1.404-9.934 4.185-2.681 2.794-4.023 6.263-4.023 10.361 0 2.069 0.468 4.088 1.378 6.054 0.924 1.97 2.191 3.645 3.803 4.999 1.232 1.033 2.573 1.82 4.026 2.364 1.435 0.529 2.953 0.798 4.514 0.798 3.826 0 7.115-1.391 9.846-4.172 0.988-1.009 1.734-2.115 2.363-3.264 3.416-1.767 8.844-4.442 11.656-6.58v0c0 3.273-0.594 6.326-1.771 9.17-0.155 0.377-0.35 0.737-0.524 1.105l21.061-0.013zm-67.06-13.01c1.134 8.76 7.868 14.386 9.651 15.734-0.611 2.222-1.052 5.23-0.789 7.23 1.241 9.378 9.632 12.863 18.149 11.347 5.836-1.046 11.324-5.008 15.51-9.587 0.053-0.059 0.103-0.092 0.156-0.149l-0.027 13.977c-19.024 13.638-38.067 8.19-46.675-3.883-5.082-7.127-5.996-16.873-2.732-25.807 1.187-3.284 3.414-6.442 6.757-8.862" fill="#fff"/>
   </g>
  </g>
 </g>
</svg>
