<?xml version="1.0" encoding="UTF-8"?>
<!-- Created with Inkscape (http://www.inkscape.org/) -->
<svg width="170.03mm" height="38.504mm" version="1.1" viewBox="0 0 170.03 38.504" xmlns="http://www.w3.org/2000/svg" xmlns:cc="http://creativecommons.org/ns#" xmlns:dc="http://purl.org/dc/elements/1.1/" xmlns:rdf="http://www.w3.org/1999/02/22-rdf-syntax-ns#">
 <metadata>
  <rdf:RDF>
   <cc:Work rdf:about="">
    <dc:format>image/svg+xml</dc:format>
    <dc:type rdf:resource="http://purl.org/dc/dcmitype/StillImage"/>
    <dc:title/>
   </cc:Work>
  </rdf:RDF>
 </metadata>
 <g transform="translate(543.88 -52.474)">
  <g transform="translate(-668.19 464.19)">
   <path d="m124.31-411.72h170.03v38.504h-170.03z" fill="#e40521"/>
   <g fill="#fff" stroke-width=".26458px" aria-label="ZPRÁVY Z AKCÍ">
    <path d="m140.1-397.35v-3.556h9.398v3.556l-5.334 10.566h5.5118v3.556h-9.8298v-3.556l5.334-10.566z"/>
    <path d="m155.53-383.22h-3.81v-17.678h5.9436c3.7084 0 5.3086 2.0574 5.3086 5.4864v1.4732c0 3.429-1.6002 5.4864-5.3086 5.4864h-2.1336zm0-8.7884h2.6416c0.7366 0 0.9906-0.381 0.9906-1.1684v-2.9972c0-0.7874-0.254-1.1684-0.9906-1.1684h-2.6416z"/>
    <path d="m176.27-383.22-2.3876-6.5024c1.4732-0.889 2.1336-2.5146 2.1336-4.7244v-0.9652c0-3.429-1.6002-5.4864-5.3086-5.4864h-5.9436v17.678h3.81v-5.7404h1.7526l2.0066 5.7404zm-7.6962-14.122h2.6416c0.7366 0 0.9906 0.381 0.9906 1.1684v2.4892c0 0.7874-0.254 1.1684-0.9906 1.1684h-2.6416z"/>
    <path d="m186.8-405.17-2.5654 3.2512h-3.2004l1.9558-3.2512zm-5.4102 19.126-0.5334 2.8194h-3.81l4.191-17.678h3.81l4.191 17.678h-3.81l-0.5334-2.8194zm2.8448-3.556c-0.3556-1.8542-0.7874-3.8862-1.016-5.5626h-0.1524c-0.2286 1.6764-0.6604 3.7084-1.016 5.5626z"/>
    <path d="m192.4-383.22-4.191-17.678h3.81l1.0414 4.826c0.3302 1.4986 0.8382 4.1148 1.1684 7.112h0.1524c0.3302-2.9972 0.8382-5.6134 1.1684-7.112l1.0414-4.826h3.81l-4.191 17.678z"/>
    <path d="m204.71-383.22v-4.572l-4.064-13.106h3.81l0.8128 2.8956c0.4064 1.4732 0.889 3.6068 1.27 5.588h0.1524c0.381-1.9812 0.8636-4.1148 1.27-5.588l0.8128-2.8956h3.81l-4.064 13.106v4.572z"/>
    <path d="m218.68-397.35v-3.556h9.398v3.556l-5.334 10.566h5.5118v3.556h-9.8298v-3.556l5.334-10.566z"/>
    <path d="m238.68-386.04-0.5334 2.8194h-3.81l4.191-17.678h3.81l4.191 17.678h-3.81l-0.5334-2.8194zm2.8448-3.556c-0.3556-1.8542-0.7874-3.8862-1.016-5.5626h-0.1524c-0.2286 1.6764-0.6604 3.7084-1.016 5.5626z"/>
    <path d="m255.88-383.22h3.937l-3.9116-9.1948 3.4036-8.4836h-3.937l-2.7432 6.8326h-0.762v-6.8326h-3.81v17.678h3.81v-7.2898h0.9144z"/>
    <path d="m267.8-394.22v-2.2098c0-0.7874-0.254-1.1684-0.9906-1.1684h-1.651c-0.7366 0-0.9906 0.381-0.9906 1.1684v8.7376c0 0.7874 0.254 1.1684 0.9906 1.1684h1.651c0.7366 0 0.9906-0.381 0.9906-1.1684v-2.2098h3.81v1.4478c0 3.429-1.6002 5.4864-5.3086 5.4864h-0.635c-3.7084 0-5.3086-2.0574-5.3086-5.4864v-7.2136c0-3.429 1.6002-5.4864 5.3086-5.4864h0.635c3.7084 0 5.3086 2.0574 5.3086 5.4864v1.4478z"/>
    <path d="m280.89-405.17-2.5654 3.2512h-3.2004l1.9558-3.2512zm-5.8166 7.8232h-1.9304v-3.556h7.6708v3.556h-1.9304v10.566h1.9304v3.556h-7.6708v-3.556h1.9304z"/>
   </g>
  </g>
 </g>
</svg>
