<?xml version="1.0" encoding="UTF-8"?>
<!-- Created with Inkscape (http://www.inkscape.org/) -->
<svg width="82.973mm" height="18.186mm" version="1.1" viewBox="0 0 82.973 18.186" xmlns="http://www.w3.org/2000/svg" xmlns:cc="http://creativecommons.org/ns#" xmlns:dc="http://purl.org/dc/elements/1.1/" xmlns:rdf="http://www.w3.org/1999/02/22-rdf-syntax-ns#">
 <metadata>
  <rdf:RDF>
   <cc:Work rdf:about="">
    <dc:format>image/svg+xml</dc:format>
    <dc:type rdf:resource="http://purl.org/dc/dcmitype/StillImage"/>
    <dc:title/>
   </cc:Work>
  </rdf:RDF>
 </metadata>
 <g transform="translate(-63.508 -127.41)">
  <g fill="#ff1d23" stroke-width=".26458px" aria-label="JEDNOTY">
   <path d="m64.524 127.66h7.5438v1.143h-7.5438zm5.7404 3.556v8.636c0 3.429-1.6002 5.4864-5.3086 5.4864h-1.4478v-1.143h1.4478c3.0988 0 4.0386-1.524 4.0386-4.3434v-8.636h-1.27v9.398c0 1.4224-0.4572 2.3114-2.2606 2.3114h-1.9558v-1.143h1.9558c0.7366 0 0.9906-0.381 0.9906-1.1684v-9.398h-1.9304v-1.143h7.5438v1.143z"/>
   <path d="m73.602 127.66h8.7884v1.143h-8.7884zm0 2.413h8.7884v1.143h-4.9784v3.4036h4.7244v1.143h-8.5344zm1.27 4.5466h1.27v-3.4036h-1.27zm-1.27 2.413h8.5344v1.143h-4.7244v3.6068h4.9784v1.143h-8.7884zm1.27 4.7498h1.27v-3.6068h-1.27zm-1.27 2.413h8.7884v1.143h-8.7884z"/>
   <path d="m84.665 144.19h6.0706c3.0988 0 4.0386-1.524 4.0386-4.3434v-6.7056c0-2.8194-0.9398-4.3434-4.0386-4.3434h-6.0706v-1.143h6.0706c3.7084 0 5.3086 2.0574 5.3086 5.4864v6.7056c0 3.429-1.6002 5.4864-5.3086 5.4864h-6.0706zm0-14.122h6.5786c1.8034 0 2.2606 0.889 2.2606 2.3114v8.2296c0 1.4224-0.4572 2.3114-2.2606 2.3114h-6.5786zm1.27 1.143v10.566h1.27v-10.566zm2.54 10.566h2.7686c0.7366 0 0.9906-0.381 0.9906-1.1684v-8.2296c0-0.7874-0.254-1.1684-0.9906-1.1684h-2.7686z"/>
   <path d="m98.308 127.66h1.27l7.8994 17.678h-1.27l-4.0894-9.1186v9.1186h-1.27v-11.989l-1.27-2.8702v14.859h-1.27zm11.709 17.678h-1.27l-7.8994-17.678h1.27l4.0894 9.1186v-9.1186h1.27v11.989l1.27 2.8702v-14.859h1.27z"/>
   <path d="m112.29 132.89c0-3.429 1.6002-5.4864 5.3086-5.4864h0.635c3.7084 0 5.3086 2.0574 5.3086 5.4864v7.2136c0 3.429-1.6002 5.4864-5.3086 5.4864h-0.635c-3.7084 0-5.3086-2.0574-5.3086-5.4864zm1.27 7.2136c0 2.8194 0.9398 4.3434 4.0386 4.3434h0.635c3.0988 0 4.0386-1.524 4.0386-4.3434v-7.2136c0-2.8194-0.9398-4.3434-4.0386-4.3434h-0.635c-3.0988 0-4.0386 1.524-4.0386 4.3434zm1.27-7.9756c0-1.4224 0.4572-2.3114 2.2606-2.3114h1.651c1.8034 0 2.2606 0.889 2.2606 2.3114v8.7376c0 1.4224-0.4572 2.3114-2.2606 2.3114h-1.651c-1.8034 0-2.2606-0.889-2.2606-2.3114zm4.9022 0c0-0.7874-0.254-1.1684-0.9906-1.1684h-1.651c-0.7366 0-0.9906 0.381-0.9906 1.1684v8.7376c0 0.7874 0.254 1.1684 0.9906 1.1684h1.651c0.7366 0 0.9906-0.381 0.9906-1.1684z"/>
   <path d="m124.58 127.66h9.4488v1.143h-9.4488zm0 2.413h9.4488v1.143h-2.8194v14.122h-1.27v-14.122h-1.27v14.122h-1.27v-14.122h-2.8194z"/>
   <path d="m134.54 127.66h1.27l4.064 13.106v4.572h-1.27v-4.572zm2.54 0h1.27l2.159 6.9596 2.159-6.9596h1.27l-2.794 8.9916 0.635 2.0828 3.429-11.074h1.27l-4.064 13.106v4.572h-1.27v-4.572z"/>
  </g>
 </g>
</svg>
