<?xml version="1.0" encoding="UTF-8" standalone="no"?>
<svg width="58.483mm" height="9.6837mm" version="1.1" viewBox="0 0 58.483 9.6837" xmlns="http://www.w3.org/2000/svg"><g transform="translate(-.99304 -176.6)"><g fill="#e40521" stroke-width=".26458px" aria-label="činovníci"><g stroke-width=".070004px" aria-label="klub seniorů"><path d="m4.2527 186.17h1.6404l-1.6298-3.8312 1.4182-3.5348h-1.6404l-1.143 2.8469h-0.3175v-2.8469h-1.5875v7.366h1.5875v-3.0374h0.381z"/><path d="m8.2214 184.69h1.7568v1.4817h-3.3443v-7.366h1.5875z"/><path d="m12.201 178.81v5.5033c0 0.32808 0.10583 0.48683 0.41275 0.48683h0.68792c0.30692 0 0.41275-0.15875 0.41275-0.48683v-5.5033h1.5875v5.1858c0 1.4287-0.66675 2.286-2.2119 2.286h-0.26458c-1.5452 0-2.2119-0.85725-2.2119-2.286v-5.1858z"/><path d="m20.181 182.44c0.73025 0.35983 0.86783 1.0583 0.86783 1.6192v0.254c0 1.2171-0.66675 1.8627-2.2119 1.8627h-2.5823v-7.366h2.4765c1.5452 0 2.2119 0.64558 2.2119 1.8627v0.29633c0 0.48683-0.10583 1.1324-0.762 1.4711zm-2.3389-0.62441h1.1007c0.30692 0 0.41275-0.15875 0.41275-0.48684v-0.55033c0-0.32808-0.10583-0.48683-0.41275-0.48683h-1.1007zm0 1.397v1.4817h1.2065c0.30692 0 0.41275-0.15875 0.41275-0.48683v-0.508c0-0.32808-0.10583-0.48683-0.41275-0.48683z"/><path d="m26.276 186.28c-1.5452 0-2.2119-0.75142-2.2119-2.1802v-0.39158h1.5875v0.60325c0 0.32808 0.10583 0.48683 0.41275 0.48683h0.635c0.30692 0 0.41275-0.15875 0.41275-0.48683v-0.41275c0-0.99483-3.1009-0.34925-3.1009-2.8152v-0.20108c0-1.3229 0.66675-2.1802 2.2119-2.1802h0.21167c1.5452 0 2.2119 0.75141 2.2119 2.1802v0.39158h-1.5875v-0.60325c0-0.32808-0.10583-0.48683-0.41275-0.48683h-0.635c-0.30692 0-0.41275 0.15875-0.41275 0.48683v0.41275c0 0.98425 3.1009 0.34925 3.1009 2.8152v0.20108c0 1.3229-0.66675 2.1802-2.2119 2.1802z"/><path d="m33.209 181.71v1.4817h-1.9685v1.5028h2.0743v1.4817h-3.6618v-7.366h3.6618v1.4817h-2.0743v1.4182z"/><path d="m37.601 183.04h0.0635c-0.05292-0.60325-0.10583-1.5134-0.10583-2.0108v-2.2225h1.5875v7.366h-1.5875l-1.7462-4.2333h-0.0635c0.05292 0.60324 0.10583 1.5134 0.10583 2.0108v2.2225h-1.5875v-7.366h1.5875z"/><path d="m40.691 180.29h-0.80433v-1.4817h3.1962v1.4817h-0.80433v4.4026h0.80433v1.4817h-3.1962v-1.4817h0.80433z"/><path d="m43.718 180.99c0-1.4288 0.66675-2.286 2.2119-2.286h0.26458c1.5452 0 2.2119 0.85724 2.2119 2.286v3.0057c0 1.4287-0.66675 2.286-2.2119 2.286h-0.26458c-1.5452 0-2.2119-0.85725-2.2119-2.286zm3.1009-0.3175c0-0.32808-0.10583-0.48683-0.41275-0.48683h-0.68791c-0.30692 0-0.41275 0.15875-0.41275 0.48683v3.6407c0 0.32808 0.10583 0.48683 0.41275 0.48683h0.68791c0.30692 0 0.41275-0.15875 0.41275-0.48683z"/><path d="m54.153 186.17-0.99483-2.7093c0.61383-0.37041 0.889-1.0478 0.889-1.9685v-0.40217c0-1.4287-0.66675-2.286-2.2119-2.286h-2.4765v7.366h1.5875v-2.3918h0.73025l0.83608 2.3918zm-3.2067-5.8843h1.1007c0.30692 0 0.41275 0.15875 0.41275 0.48683v1.0372c0 0.32808-0.10583 0.48683-0.41275 0.48683h-1.1007z"/><path d="m58.439 177.6c0 0.58208-0.4445 1.0054-1.3123 1.0054-0.87841 0-1.3123-0.42334-1.3123-1.0054 0-0.57149 0.43392-1.0054 1.3123-1.0054 0.86783 0 1.3123 0.43392 1.3123 1.0054zm-1.7462 0c0 0.17992 0.1905 0.27517 0.43392 0.27517s0.43392-0.0953 0.43392-0.27517c0-0.16933-0.1905-0.27516-0.43392-0.27516s-0.43392 0.10583-0.43392 0.27516zm-0.3175 1.2065v5.5033c0 0.32808 0.10583 0.48683 0.41275 0.48683h0.68792c0.30692 0 0.41275-0.15875 0.41275-0.48683v-5.5033h1.5875v5.1858c0 1.4287-0.66675 2.286-2.2119 2.286h-0.26458c-1.5452 0-2.2119-0.85725-2.2119-2.286v-5.1858z"/></g></g></g></svg>
