<?xml version="1.0" encoding="UTF-8" standalone="no"?>
<svg width="62.515mm" height="9.2498mm" version="1.1" viewBox="0 0 62.515 9.2498" xmlns="http://www.w3.org/2000/svg"><g transform="translate(7.8125 -179.79)"><g fill="#e40521" stroke-width=".26458px" aria-label="činovníci"><g stroke-width=".070004px" aria-label="Všestrannost"><path d="m-6.0662 188.93-1.7462-7.366h1.5875l0.43392 2.0108c0.13758 0.62441 0.34925 1.7145 0.48683 2.9633h0.0635c0.13758-1.2488 0.34925-2.3389 0.48683-2.9633l0.43392-2.0108h1.5875l-1.7462 7.366z"/><path d="m-0.77462 181.14-1.2171-1.3547h1.4076l0.508 0.4445 0.51858-0.4445h1.4076l-1.2171 1.3547zm0.62441 7.8951c-1.5452 0-2.2119-0.75141-2.2119-2.1802v-0.39158h1.5875v0.60325c0 0.32808 0.10583 0.48683 0.41275 0.48683h0.635c0.30692 0 0.41275-0.15875 0.41275-0.48683v-0.41275c0-0.99483-3.1009-0.34925-3.1009-2.8152v-0.20108c0-1.3229 0.66675-2.1802 2.2119-2.1802h0.21167c1.5452 0 2.2119 0.75141 2.2119 2.1802v0.39158h-1.5875v-0.60325c0-0.32808-0.10583-0.48683-0.41275-0.48683h-0.635c-0.30692 0-0.41275 0.15875-0.41275 0.48683v0.41275c0 0.98425 3.1009 0.34925 3.1009 2.8152v0.20108c0 1.3229-0.66675 2.1802-2.2119 2.1802z"/><path d="m6.7818 184.47v1.4817h-1.9685v1.5028h2.0743v1.4817h-3.6618v-7.366h3.6618v1.4817h-2.0743v1.4182z"/><path d="m9.9992 189.04c-1.5452 0-2.2119-0.75141-2.2119-2.1802v-0.39158h1.5875v0.60325c0 0.32808 0.10583 0.48683 0.41275 0.48683h0.635c0.30692 0 0.41275-0.15875 0.41275-0.48683v-0.41275c0-0.99483-3.1009-0.34925-3.1009-2.8152v-0.20108c0-1.3229 0.66675-2.1802 2.2119-2.1802h0.21167c1.5452 0 2.2119 0.75141 2.2119 2.1802v0.39158h-1.5875v-0.60325c0-0.32808-0.10583-0.48683-0.41275-0.48683h-0.635c-0.30692 0-0.41275 0.15875-0.41275 0.48683v0.41275c0 0.98425 3.1009 0.34925 3.1009 2.8152v0.20108c0 1.3229-0.66675 2.1802-2.2119 2.1802z"/><path d="m14.021 188.93v-5.8843h-1.1747v-1.4817h3.937v1.4817h-1.1747v5.8843z"/><path d="m22.318 188.93-0.99483-2.7093c0.61383-0.37042 0.889-1.0478 0.889-1.9685v-0.40216c0-1.4288-0.66675-2.286-2.2119-2.286h-2.4765v7.366h1.5875v-2.3918h0.73025l0.83608 2.3918zm-3.2067-5.8843h1.1007c0.30692 0 0.41275 0.15874 0.41275 0.48683v1.0372c0 0.32808-0.10583 0.48683-0.41275 0.48683h-1.1007z"/><path d="m24.445 187.76-0.22225 1.1748h-1.5875l1.7462-7.366h1.5875l1.7462 7.366h-1.5875l-0.22225-1.1748zm1.1853-1.4817c-0.14817-0.77258-0.32808-1.6192-0.42333-2.3177h-0.0635c-0.09525 0.6985-0.27517 1.5452-0.42333 2.3177z"/><path d="m31.684 185.8h0.0635c-0.05292-0.60324-0.10583-1.5134-0.10583-2.0108v-2.2225h1.5875v7.366h-1.5875l-1.7462-4.2333h-0.0635c0.05292 0.60325 0.10583 1.5134 0.10583 2.0108v2.2225h-1.5875v-7.366h1.5875z"/><path d="m37.621 185.8h0.0635c-0.05292-0.60324-0.10583-1.5134-0.10583-2.0108v-2.2225h1.5875v7.366h-1.5875l-1.7462-4.2333h-0.0635c0.05292 0.60325 0.10583 1.5134 0.10583 2.0108v2.2225h-1.5875v-7.366h1.5875z"/><path d="m40.119 183.75c0-1.4287 0.66675-2.286 2.2119-2.286h0.26458c1.5452 0 2.2119 0.85725 2.2119 2.286v3.0057c0 1.4288-0.66675 2.286-2.2119 2.286h-0.26458c-1.5452 0-2.2119-0.85724-2.2119-2.286zm3.1009-0.3175c0-0.32808-0.10583-0.48683-0.41275-0.48683h-0.68791c-0.30692 0-0.41275 0.15875-0.41275 0.48683v3.6407c0 0.32808 0.10583 0.48683 0.41275 0.48683h0.68791c0.30692 0 0.41275-0.15875 0.41275-0.48683z"/><path d="m47.919 189.04c-1.5452 0-2.2119-0.75141-2.2119-2.1802v-0.39158h1.5875v0.60325c0 0.32808 0.10583 0.48683 0.41275 0.48683h0.635c0.30692 0 0.41275-0.15875 0.41275-0.48683v-0.41275c0-0.99483-3.1009-0.34925-3.1009-2.8152v-0.20108c0-1.3229 0.66675-2.1802 2.2119-2.1802h0.21167c1.5452 0 2.2119 0.75141 2.2119 2.1802v0.39158h-1.5875v-0.60325c0-0.32808-0.10583-0.48683-0.41275-0.48683h-0.635c-0.30692 0-0.41275 0.15875-0.41275 0.48683v0.41275c0 0.98425 3.1009 0.34925 3.1009 2.8152v0.20108c0 1.3229-0.66675 2.1802-2.2119 2.1802z"/><path d="m51.941 188.93v-5.8843h-1.1747v-1.4817h3.937v1.4817h-1.1747v5.8843z"/></g></g></g></svg>
