<?xml version="1.0" encoding="UTF-8"?>
<!-- Created with Inkscape (http://www.inkscape.org/) -->
<svg width="203.38mm" height="22.2mm" version="1.1" viewBox="0 0 203.38 22.2" xmlns="http://www.w3.org/2000/svg" xmlns:cc="http://creativecommons.org/ns#" xmlns:dc="http://purl.org/dc/elements/1.1/" xmlns:rdf="http://www.w3.org/1999/02/22-rdf-syntax-ns#">
 <metadata>
  <rdf:RDF>
   <cc:Work rdf:about="">
    <dc:format>image/svg+xml</dc:format>
    <dc:type rdf:resource="http://purl.org/dc/dcmitype/StillImage"/>
    <dc:title/>
   </cc:Work>
  </rdf:RDF>
 </metadata>
 <g transform="translate(-9.4333 -127.15)">
  <g fill="#e40521" stroke-width=".26458px" aria-label="PŘEDSEDNICTVO ČOS">
   <path d="m13.243 149.1h-3.81v-17.678h5.9436c3.7084 0 5.3086 2.0574 5.3086 5.4864v1.4732c0 3.429-1.6002 5.4864-5.3086 5.4864h-2.1336zm0-8.7884h2.6416c0.7366 0 0.9906-0.381 0.9906-1.1684v-2.9972c0-0.7874-0.254-1.1684-0.9906-1.1684h-2.6416z"/>
   <path d="m29.161 130.4 2.921-3.2512h-3.3782l-1.2446 1.0668-1.2192-1.0668h-3.3782l2.921 3.2512zm4.826 18.694-2.3876-6.5024c1.4732-0.889 2.1336-2.5146 2.1336-4.7244v-0.9652c0-3.429-1.6002-5.4864-5.3086-5.4864h-5.9436v17.678h3.81v-5.7404h1.7526l2.0066 5.7404zm-7.6962-14.122h2.6416c0.7366 0 0.9906 0.381 0.9906 1.1684v2.4892c0 0.7874-0.254 1.1684-0.9906 1.1684h-2.6416z"/>
   <path d="m44.31 138.38v3.556h-4.7244v3.6068h4.9784v3.556h-8.7884v-17.678h8.7884v3.556h-4.9784v3.4036z"/>
   <path d="m52.909 131.42c3.7084 0 5.3086 2.0574 5.3086 5.4864v6.7056c0 3.429-1.6002 5.4864-5.3086 5.4864h-6.0706v-17.678zm-2.2606 3.556v10.566h2.7686c0.7366 0 0.9906-0.381 0.9906-1.1684v-8.2296c0-0.7874-0.254-1.1684-0.9906-1.1684z"/>
   <path d="m65.663 149.35c-3.7084 0-5.3086-1.8034-5.3086-5.2324v-0.9398h3.81v1.4478c0 0.7874 0.254 1.1684 0.9906 1.1684h1.524c0.7366 0 0.9906-0.381 0.9906-1.1684v-0.9906c0-2.3876-7.4422-0.8382-7.4422-6.7564v-0.4826c0-3.175 1.6002-5.2324 5.3086-5.2324h0.508c3.7084 0 5.3086 1.8034 5.3086 5.2324v0.9398h-3.81v-1.4478c0-0.7874-0.254-1.1684-0.9906-1.1684h-1.524c-0.7366 0-0.9906 0.381-0.9906 1.1684v0.9906c0 2.3622 7.4422 0.8382 7.4422 6.7564v0.4826c0 3.175-1.6002 5.2324-5.3086 5.2324z"/>
   <path d="m82.311 138.38v3.556h-4.7244v3.6068h4.9784v3.556h-8.7884v-17.678h8.7884v3.556h-4.9784v3.4036z"/>
   <path d="m90.91 131.42c3.7084 0 5.3086 2.0574 5.3086 5.4864v6.7056c0 3.429-1.6002 5.4864-5.3086 5.4864h-6.0706v-17.678zm-2.2606 3.556v10.566h2.7686c0.7366 0 0.9906-0.381 0.9906-1.1684v-8.2296c0-0.7874-0.254-1.1684-0.9906-1.1684z"/>
   <path d="m106.48 141.58h0.1524c-0.127-1.4478-0.254-3.6322-0.254-4.826v-5.334h3.81v17.678h-3.81l-4.191-10.16h-0.1524c0.127 1.4478 0.254 3.6322 0.254 4.826v5.334h-3.81v-17.678h3.81z"/>
   <path d="m113.89 134.97h-1.9304v-3.556h7.6708v3.556h-1.9304v10.566h1.9304v3.556h-7.6708v-3.556h1.9304z"/>
   <path d="m128.59 138.1v-2.2098c0-0.7874-0.254-1.1684-0.9906-1.1684h-1.651c-0.7366 0-0.9906 0.381-0.9906 1.1684v8.7376c0 0.7874 0.254 1.1684 0.9906 1.1684h1.651c0.7366 0 0.9906-0.381 0.9906-1.1684v-2.2098h3.81v1.4478c0 3.429-1.6002 5.4864-5.3086 5.4864h-0.635c-3.7084 0-5.3086-2.0574-5.3086-5.4864v-7.2136c0-3.429 1.6002-5.4864 5.3086-5.4864h0.635c3.7084 0 5.3086 2.0574 5.3086 5.4864v1.4478z"/>
   <path d="m136.26 149.1v-14.122h-2.8194v-3.556h9.4488v3.556h-2.8194v14.122z"/>
   <path d="m147.84 149.1-4.191-17.678h3.81l1.0414 4.826c0.3302 1.4986 0.8382 4.1148 1.1684 7.112h0.1524c0.3302-2.9972 0.8382-5.6134 1.1684-7.112l1.0414-4.826h3.81l-4.191 17.678z"/>
   <path d="m156.62 136.65c0-3.429 1.6002-5.4864 5.3086-5.4864h0.635c3.7084 0 5.3086 2.0574 5.3086 5.4864v7.2136c0 3.429-1.6002 5.4864-5.3086 5.4864h-0.635c-3.7084 0-5.3086-2.0574-5.3086-5.4864zm7.4422-0.762c0-0.7874-0.254-1.1684-0.9906-1.1684h-1.651c-0.7366 0-0.9906 0.381-0.9906 1.1684v8.7376c0 0.7874 0.254 1.1684 0.9906 1.1684h1.651c0.7366 0 0.9906-0.381 0.9906-1.1684z"/>
   <path d="m178.91 130.4-2.921-3.2512h3.3782l1.2192 1.0668 1.2446-1.0668h3.3782l-2.921 3.2512zm3.5052 7.6962v-2.2098c0-0.7874-0.254-1.1684-0.9906-1.1684h-1.651c-0.7366 0-0.9906 0.381-0.9906 1.1684v8.7376c0 0.7874 0.254 1.1684 0.9906 1.1684h1.651c0.7366 0 0.9906-0.381 0.9906-1.1684v-2.2098h3.81v1.4478c0 3.429-1.6002 5.4864-5.3086 5.4864h-0.635c-3.7084 0-5.3086-2.0574-5.3086-5.4864v-7.2136c0-3.429 1.6002-5.4864 5.3086-5.4864h0.635c3.7084 0 5.3086 2.0574 5.3086 5.4864v1.4478z"/>
   <path d="m188.27 136.65c0-3.429 1.6002-5.4864 5.3086-5.4864h0.635c3.7084 0 5.3086 2.0574 5.3086 5.4864v7.2136c0 3.429-1.6002 5.4864-5.3086 5.4864h-0.635c-3.7084 0-5.3086-2.0574-5.3086-5.4864zm7.4422-0.762c0-0.7874-0.254-1.1684-0.9906-1.1684h-1.651c-0.7366 0-0.9906 0.381-0.9906 1.1684v8.7376c0 0.7874 0.254 1.1684 0.9906 1.1684h1.651c0.7366 0 0.9906-0.381 0.9906-1.1684z"/>
   <path d="m207 149.35c-3.7084 0-5.3086-1.8034-5.3086-5.2324v-0.9398h3.81v1.4478c0 0.7874 0.254 1.1684 0.9906 1.1684h1.524c0.7366 0 0.9906-0.381 0.9906-1.1684v-0.9906c0-2.3876-7.4422-0.8382-7.4422-6.7564v-0.4826c0-3.175 1.6002-5.2324 5.3086-5.2324h0.508c3.7084 0 5.3086 1.8034 5.3086 5.2324v0.9398h-3.81v-1.4478c0-0.7874-0.254-1.1684-0.9906-1.1684h-1.524c-0.7366 0-0.9906 0.381-0.9906 1.1684v0.9906c0 2.3622 7.4422 0.8382 7.4422 6.7564v0.4826c0 3.175-1.6002 5.2324-5.3086 5.2324z"/>
  </g>
 </g>
</svg>
