<?xml version="1.0" encoding="UTF-8"?>
<!-- Created with Inkscape (http://www.inkscape.org/) -->
<svg width="82.973mm" height="18.186mm" version="1.1" viewBox="0 0 82.973 18.186" xmlns="http://www.w3.org/2000/svg" xmlns:cc="http://creativecommons.org/ns#" xmlns:dc="http://purl.org/dc/elements/1.1/" xmlns:rdf="http://www.w3.org/1999/02/22-rdf-syntax-ns#">
 <metadata>
  <rdf:RDF>
   <cc:Work rdf:about="">
    <dc:format>image/svg+xml</dc:format>
    <dc:type rdf:resource="http://purl.org/dc/dcmitype/StillImage"/>
    <dc:title/>
   </cc:Work>
  </rdf:RDF>
 </metadata>
 <g transform="translate(-58.453 -126.95)">
  <g fill="#ff1d23" stroke-width=".26458px" aria-label="JEDNOTY">
   <path d="m59.469 130.76v-3.556h7.5438v3.556h-1.8034v8.636c0 3.429-1.6002 5.4864-5.3086 5.4864h-1.4478v-3.556h1.9558c0.7366 0 0.9906-0.381 0.9906-1.1684v-9.398z"/>
   <path d="m77.082 134.16v3.556h-4.7244v3.6068h4.9784v3.556h-8.7884v-17.678h8.7884v3.556h-4.9784v3.4036z"/>
   <path d="m85.681 127.2c3.7084 0 5.3086 2.0574 5.3086 5.4864v6.7056c0 3.429-1.6002 5.4864-5.3086 5.4864h-6.0706v-17.678zm-2.2606 3.556v10.566h2.7686c0.7366 0 0.9906-0.381 0.9906-1.1684v-8.2296c0-0.7874-0.254-1.1684-0.9906-1.1684z"/>
   <path d="m101.25 137.36h0.1524c-0.127-1.4478-0.254-3.6322-0.254-4.826v-5.334h3.81v17.678h-3.81l-4.191-10.16h-0.1524c0.127 1.4478 0.254 3.6322 0.254 4.826v5.334h-3.81v-17.678h3.81z"/>
   <path d="m107.24 132.43c0-3.429 1.6002-5.4864 5.3086-5.4864h0.635c3.7084 0 5.3086 2.0574 5.3086 5.4864v7.2136c0 3.429-1.6002 5.4864-5.3086 5.4864h-0.635c-3.7084 0-5.3086-2.0574-5.3086-5.4864zm7.4422-0.762c0-0.7874-0.254-1.1684-0.9906-1.1684h-1.651c-0.7366 0-0.9906 0.381-0.9906 1.1684v8.7376c0 0.7874 0.254 1.1684 0.9906 1.1684h1.651c0.7366 0 0.9906-0.381 0.9906-1.1684z"/>
   <path d="m122.35 144.88v-14.122h-2.8194v-3.556h9.4488v3.556h-2.8194v14.122z"/>
   <path d="m133.55 144.88v-4.572l-4.064-13.106h3.81l0.8128 2.8956c0.4064 1.4732 0.889 3.6068 1.27 5.588h0.1524c0.381-1.9812 0.8636-4.1148 1.27-5.588l0.8128-2.8956h3.81l-4.064 13.106v4.572z"/>
  </g>
 </g>
</svg>
