<?xml version="1.0" encoding="UTF-8" standalone="no"?>
<svg width="25.654mm" height="7.5776mm" version="1.1" viewBox="0 0 25.654 7.5776" xmlns="http://www.w3.org/2000/svg"><g transform="translate(.29513 -178.94)"><g fill="#e40521" stroke-width=".26458px" aria-label="činovníci"><g stroke-width=".070004px" aria-label="Všestrannost"><g stroke-width=".018522px" aria-label="sport"><path d="m1.9697 186.52c-1.5452 0-2.2119-0.75141-2.2119-2.1802v-0.39158h1.5875v0.60325c0 0.32808 0.10583 0.48683 0.41275 0.48683h0.635c0.30692 0 0.41275-0.15875 0.41275-0.48683v-0.41275c0-0.99483-3.1009-0.34925-3.1009-2.8152v-0.20108c0-1.3229 0.66675-2.1802 2.2119-2.1802h0.21167c1.5452 0 2.2119 0.75142 2.2119 2.1802v0.39158h-1.5875v-0.60324c0-0.32809-0.10583-0.48684-0.41275-0.48684h-0.635c-0.30692 0-0.41275 0.15875-0.41275 0.48684v0.41274c0 0.98425 3.1009 0.34925 3.1009 2.8152v0.20108c0 1.3229-0.66675 2.1802-2.2119 2.1802z"/><path d="m6.9332 186.41h-1.5875v-7.366h2.4765c1.5452 0 2.2119 0.85724 2.2119 2.286v0.61383c0 1.4287-0.66675 2.286-2.2119 2.286h-0.889zm0-3.6618h1.1007c0.30692 0 0.41275-0.15875 0.41275-0.48683v-1.2488c0-0.32808-0.10583-0.48683-0.41275-0.48683h-1.1007z"/><path d="m10.669 181.22c0-1.4287 0.66675-2.286 2.2119-2.286h0.26458c1.5452 0 2.2119 0.85725 2.2119 2.286v3.0057c0 1.4288-0.66675 2.286-2.2119 2.286h-0.26458c-1.5452 0-2.2119-0.85724-2.2119-2.286zm3.1009-0.31749c0-0.32809-0.10583-0.48684-0.41275-0.48684h-0.68792c-0.30692 0-0.41275 0.15875-0.41275 0.48684v3.6406c0 0.32808 0.10583 0.48683 0.41275 0.48683h0.68792c0.30692 0 0.41275-0.15875 0.41275-0.48683z"/><path d="m21.104 186.41-0.99483-2.7093c0.61383-0.37042 0.889-1.0478 0.889-1.9685v-0.40216c0-1.4288-0.66675-2.286-2.2119-2.286h-2.4765v7.366h1.5875v-2.3918h0.73025l0.83608 2.3918zm-3.2067-5.8843h1.1007c0.30692 0 0.41275 0.15875 0.41275 0.48683v1.0372c0 0.32808-0.10583 0.48683-0.41275 0.48683h-1.1007z"/><path d="m22.596 186.41v-5.8843h-1.1747v-1.4817h3.937v1.4817h-1.1747v5.8843z"/></g></g></g></g></svg>
