<?xml version="1.0" encoding="UTF-8"?>
<!-- Created with Inkscape (http://www.inkscape.org/) -->
<svg width="195.07mm" height="22.2mm" version="1.1" viewBox="0 0 195.07 22.2" xmlns="http://www.w3.org/2000/svg" xmlns:cc="http://creativecommons.org/ns#" xmlns:dc="http://purl.org/dc/elements/1.1/" xmlns:rdf="http://www.w3.org/1999/02/22-rdf-syntax-ns#">
 <metadata>
  <rdf:RDF>
   <cc:Work rdf:about="">
    <dc:format>image/svg+xml</dc:format>
    <dc:type rdf:resource="http://purl.org/dc/dcmitype/StillImage"/>
    <dc:title/>
   </cc:Work>
  </rdf:RDF>
 </metadata>
 <g transform="translate(-8.2973 -137.73)">
  <g fill="#ff1d23" stroke-width=".26458px" aria-label="SOUHRNNÉ TABULKY">
   <path d="m17.01 155.21c0 1.4224-0.4572 2.3114-2.2606 2.3114h-1.524c-1.8034 0-2.2606-0.889-2.2606-2.3114v-1.4478h1.27v1.4478c0 0.7874 0.254 1.1684 0.9906 1.1684h1.524c0.7366 0 0.9906-0.381 0.9906-1.1684v-0.9906c0-2.3876-7.4422-0.8382-7.4422-6.7564v-0.4826c0-3.175 1.6002-5.2324 5.3086-5.2324h0.508c3.7084 0 5.3086 1.8034 5.3086 5.2324v0.9398h-1.27v-0.9398c0-2.8194-0.9398-4.0894-4.0386-4.0894h-0.508c-3.0988 0-4.0386 1.524-4.0386 4.0894v0.4826c0 5.1562 7.4422 2.8448 7.4422 6.7564zm-6.1722-8.7376c0-1.4224 0.4572-2.3114 2.2606-2.3114h1.524c1.8034 0 2.2606 0.889 2.2606 2.3114v1.4478h-1.27v-1.4478c0-0.7874-0.254-1.1684-0.9906-1.1684h-1.524c-0.7366 0-0.9906 0.381-0.9906 1.1684v0.9906c0 2.3622 7.4422 0.8382 7.4422 6.7564v0.4826c0 3.175-1.6002 5.2324-5.3086 5.2324h-0.508c-3.7084 0-5.3086-1.8034-5.3086-5.2324v-0.9398h1.27v0.9398c0 2.8194 0.9398 4.0894 4.0386 4.0894h0.508c3.0988 0 4.0386-1.524 4.0386-4.0894v-0.4826c0-5.1562-7.4422-2.8448-7.4422-6.7564z"/>
   <path d="m21.593 147.23c0-3.429 1.6002-5.4864 5.3086-5.4864h0.635c3.7084 0 5.3086 2.0574 5.3086 5.4864v7.2136c0 3.429-1.6002 5.4864-5.3086 5.4864h-0.635c-3.7084 0-5.3086-2.0574-5.3086-5.4864zm1.27 7.2136c0 2.8194 0.9398 4.3434 4.0386 4.3434h0.635c3.0988 0 4.0386-1.524 4.0386-4.3434v-7.2136c0-2.8194-0.9398-4.3434-4.0386-4.3434h-0.635c-3.0988 0-4.0386 1.524-4.0386 4.3434zm1.27-7.9756c0-1.4224 0.4572-2.3114 2.2606-2.3114h1.651c1.8034 0 2.2606 0.889 2.2606 2.3114v8.7376c0 1.4224-0.4572 2.3114-2.2606 2.3114h-1.651c-1.8034 0-2.2606-0.889-2.2606-2.3114zm4.9022 0c0-0.7874-0.254-1.1684-0.9906-1.1684h-1.651c-0.7366 0-0.9906 0.381-0.9906 1.1684v8.7376c0 0.7874 0.254 1.1684 0.9906 1.1684h1.651c0.7366 0 0.9906-0.381 0.9906-1.1684z"/>
   <path d="m46.14 142v12.446c0 3.429-1.6002 5.4864-5.3086 5.4864h-0.635c-3.7084 0-5.3086-2.0574-5.3086-5.4864v-12.446h1.27v12.446c0 2.8194 0.9398 4.3434 4.0386 4.3434h0.635c3.0988 0 4.0386-1.524 4.0386-4.3434v-12.446zm-2.54 13.208c0 1.4224-0.4572 2.3114-2.2606 2.3114h-1.651c-1.8034 0-2.2606-0.889-2.2606-2.3114v-13.208h1.27v13.208c0 0.7874 0.254 1.1684 0.9906 1.1684h1.651c0.7366 0 0.9906-0.381 0.9906-1.1684v-13.208h1.27z"/>
   <path d="m48.437 142h1.27v6.9596h1.27v-6.9596h1.27v6.9596h3.6322v-6.9596h1.27v6.9596h1.27v-6.9596h1.27v8.1026h-11.252zm0 9.3726h11.252v8.3058h-1.27v-7.1628h-1.27v7.1628h-1.27v-7.1628h-3.6322v7.1628h-1.27v-7.1628h-1.27v7.1628h-1.27z"/>
   <path d="m73.735 159.68h-1.27l-2.2098-6.0198c-0.381 0.1016-0.7874 0.1778-1.2192 0.2286l2.032 5.7912h-1.27l-2.0066-5.7404h-1.7526v5.7404h-1.27v-5.7404h-1.27v5.7404h-1.27v-6.8834h5.9436c3.0988 0 4.0386-1.524 4.0386-4.3434v-0.9652c0-2.8194-0.9398-4.3434-4.0386-4.3434h-5.9436v-1.143h5.9436c3.7084 0 5.3086 2.0574 5.3086 5.4864v0.9652c0 2.2098-0.6604 3.8354-2.1336 4.7244zm-11.506-15.265h6.4516c1.8034 0 2.2606 0.889 2.2606 2.3114v2.4892c0 1.4224-0.4572 2.3114-2.2606 2.3114h-6.4516zm1.27 5.969h1.27v-4.826h-1.27zm2.54 0h2.6416c0.7366 0 0.9906-0.381 0.9906-1.1684v-2.4892c0-0.7874-0.254-1.1684-0.9906-1.1684h-2.6416z"/>
   <path d="m75.524 142h1.27l7.8994 17.678h-1.27l-4.0894-9.1186v9.1186h-1.27v-11.989l-1.27-2.8702v14.859h-1.27zm11.709 17.678h-1.27l-7.8994-17.678h1.27l4.0894 9.1186v-9.1186h1.27v11.989l1.27 2.8702v-14.859h1.27z"/>
   <path d="m89.762 142h1.27l7.8994 17.678h-1.27l-4.0894-9.1186v9.1186h-1.27v-11.989l-1.27-2.8702v14.859h-1.27zm11.709 17.678h-1.27l-7.8994-17.678h1.27l4.0894 9.1186v-9.1186h1.27v11.989l1.27 2.8702v-14.859h1.27z"/>
   <path d="m108.5 137.73-1.9558 3.2512h-1.27l1.9558-3.2512zm2.54 0-1.9558 3.2512h-1.27l1.9558-3.2512zm-7.0358 4.2672h8.7884v1.143h-8.7884zm0 2.413h8.7884v1.143h-4.9784v3.4036h4.7244v1.143h-8.5344zm1.27 4.5466h1.27v-3.4036h-1.27zm-1.27 2.413h8.5344v1.143h-4.7244v3.6068h4.9784v1.143h-8.7884zm1.27 4.7498h1.27v-3.6068h-1.27zm-1.27 2.413h8.7884v1.143h-8.7884z"/>
   <path d="m119.36 142h9.4488v1.143h-9.4488zm0 2.413h9.4488v1.143h-2.8194v14.122h-1.27v-14.122h-1.27v14.122h-1.27v-14.122h-2.8194z"/>
   <path d="m136.44 153.3h1.27l-2.6924-11.303h1.27l2.9464 12.446h-9.7028l2.9464-12.446h1.27zm-5.3848 0h1.27l1.4224-5.9436-0.635-2.6924zm2.54 0h1.5748l-0.7874-3.302zm-0.8382 3.556-0.6604 2.8194h-1.27l0.6604-2.8194h-1.27l-0.6604 2.8194h-1.27l0.9398-3.9624h10.312l0.9398 3.9624h-1.27l-0.6604-2.8194h-1.27l0.6604 2.8194h-1.27l-0.6604-2.8194z"/>
   <path d="m142 144.41h6.4516c1.8034 0 2.2606 0.889 2.2606 2.3114v1.3208c0 1.2954-0.4572 2.3114-2.2606 2.3114h-2.6416v1.0668h2.1336c3.0988 0 4.0386-1.4478 4.0386-4.2672v-0.6858c0-2.3114-0.9398-3.3274-4.0386-3.3274h-5.9436v-1.143h5.9436c3.7084 0 5.3086 1.5494 5.3086 4.4704v0.6858c0 1.4224-0.2794 2.6416-0.8636 3.5306 0.762 0.9398 1.1176 2.286 1.1176 3.9116v0.6096c0 2.921-1.6002 4.4704-5.3086 4.4704h-6.1976v-1.143h6.1976c3.0988 0 4.0386-1.016 4.0386-3.3274v-0.6858c0-1.27-0.1778-2.2352-0.6604-2.9464-0.3048 0.2286-0.635 0.4318-1.016 0.5842 0.3048 0.381 0.4064 0.9144 0.4064 1.5748v1.2192c0 1.4224-0.4572 2.3114-2.2606 2.3114h-6.7056zm1.27 1.143v10.566h1.27v-10.566zm6.1722 1.1684c0-0.7874-0.254-1.1684-0.9906-1.1684h-2.6416v3.6576h2.6416c0.7366 0 0.9906-0.381 0.9906-1.1684zm-3.6322 5.842v3.556h2.8956c0.7366 0 0.9906-0.381 0.9906-1.1684v-1.2192c0-0.7874-0.254-1.1684-0.9906-1.1684z"/>
   <path d="m166.79 142v12.446c0 3.429-1.6002 5.4864-5.3086 5.4864h-0.635c-3.7084 0-5.3086-2.0574-5.3086-5.4864v-12.446h1.27v12.446c0 2.8194 0.9398 4.3434 4.0386 4.3434h0.635c3.0988 0 4.0386-1.524 4.0386-4.3434v-12.446zm-2.54 13.208c0 1.4224-0.4572 2.3114-2.2606 2.3114h-1.651c-1.8034 0-2.2606-0.889-2.2606-2.3114v-13.208h1.27v13.208c0 0.7874 0.254 1.1684 0.9906 1.1684h1.651c0.7366 0 0.9906-0.381 0.9906-1.1684v-13.208h1.27z"/>
   <path d="m171.63 142h1.27v14.122h4.2164v1.143h-8.0264v-15.265h1.27v14.122h1.27zm-2.54 16.535h8.0264v1.143h-8.0264z"/>
   <path d="m186.35 148.83 2.7432-6.8326h1.3208l-3.2004 7.9756h-8.0518v-7.9756h1.27v6.8326h1.27v-6.8326h1.27v6.8326h0.762l2.7432-6.8326h1.3208l-2.7432 6.8326zm-1.143 3.556 3.0988 7.2898h-1.3208l-3.0988-7.2898h-0.9144v7.2898h-1.27v-7.2898h-1.27v7.2898h-1.27v-8.4328h8.1788l3.5814 8.4328h-1.3208l-3.0988-7.2898z"/>
   <path d="m191.43 142h1.27l4.064 13.106v4.572h-1.27v-4.572zm2.54 0h1.27l2.159 6.9596 2.159-6.9596h1.27l-2.794 8.9916 0.635 2.0828 3.429-11.074h1.27l-4.064 13.106v4.572h-1.27v-4.572z"/>
  </g>
 </g>
</svg>
