<?xml version="1.0" encoding="UTF-8" standalone="no"?>
<svg width="104.38mm" height="9.2498mm" version="1.1" viewBox="0 0 104.38 9.2498" xmlns="http://www.w3.org/2000/svg"><g transform="translate(-5.7786 -174.07)"><g fill="#e40521" stroke-width=".26458px" aria-label="činovníci"><g stroke-width=".070004px" aria-label="kultura v tyršově domě"><path d="m9.0383 183.22h1.6404l-1.6298-3.8312 1.4182-3.5348h-1.6404l-1.143 2.8469h-0.3175v-2.8469h-1.5875v7.366h1.5875v-3.0374h0.381z"/><path d="m12.795 175.85v5.5033c0 0.32809 0.10583 0.48683 0.41275 0.48683h0.68791c0.30692 0 0.41275-0.15874 0.41275-0.48683v-5.5033h1.5875v5.1858c0 1.4288-0.66675 2.286-2.2119 2.286h-0.26458c-1.5452 0-2.2119-0.85725-2.2119-2.286v-5.1858z"/><path d="m18.436 181.73h1.7568v1.4817h-3.3443v-7.366h1.5875z"/><path d="m21.05 183.22v-5.8843h-1.1747v-1.4817h3.937v1.4817h-1.1747v5.8843z"/><path d="m26.035 175.85v5.5033c0 0.32809 0.10583 0.48683 0.41275 0.48683h0.68791c0.30692 0 0.41275-0.15874 0.41275-0.48683v-5.5033h1.5875v5.1858c0 1.4288-0.66675 2.286-2.2119 2.286h-0.26458c-1.5452 0-2.2119-0.85725-2.2119-2.286v-5.1858z"/><path d="m34.883 183.22-0.99483-2.7093c0.61383-0.37042 0.889-1.0478 0.889-1.9685v-0.40217c0-1.4288-0.66675-2.286-2.2119-2.286h-2.4765v7.366h1.5875v-2.3918h0.73025l0.83608 2.3918zm-3.2067-5.8843h1.1007c0.30692 0 0.41275 0.15875 0.41275 0.48683v1.0372c0 0.32809-0.10583 0.48684-0.41275 0.48684h-1.1007z"/><path d="m37.01 182.04-0.22225 1.1747h-1.5875l1.7462-7.366h1.5875l1.7462 7.366h-1.5875l-0.22225-1.1747zm1.1853-1.4817c-0.14817-0.77259-0.32808-1.6192-0.42333-2.3178h-0.0635c-0.09525 0.6985-0.27517 1.5452-0.42333 2.3178z"/><path d="m44.355 183.22-1.7462-7.366h1.5875l0.43392 2.0108c0.13758 0.62442 0.34925 1.7145 0.48683 2.9633h0.0635c0.13758-1.2488 0.34925-2.3389 0.48683-2.9633l0.43392-2.0108h1.5875l-1.7462 7.366z"/><path d="m51.297 183.22v-5.8843h-1.1747v-1.4817h3.937v1.4817h-1.1747v5.8843z"/><path d="m55.964 183.22v-1.905l-1.6933-5.461h1.5875l0.33866 1.2065c0.16933 0.61383 0.37042 1.5028 0.52916 2.3283h0.0635c0.15875-0.8255 0.35983-1.7145 0.52916-2.3283l0.33866-1.2065h1.5875l-1.6933 5.461v1.905z"/><path d="m64.569 183.22-0.99483-2.7093c0.61383-0.37042 0.889-1.0478 0.889-1.9685v-0.40217c0-1.4288-0.66675-2.286-2.2119-2.286h-2.4765v7.366h1.5875v-2.3918h0.73025l0.83608 2.3918zm-3.2067-5.8843h1.1007c0.30692 0 0.41275 0.15875 0.41275 0.48683v1.0372c0 0.32809-0.10583 0.48684-0.41275 0.48684h-1.1007z"/><path d="m66.844 175.43-1.2171-1.3547h1.4076l0.508 0.4445 0.51858-0.4445h1.4076l-1.2171 1.3547zm0.62442 7.8951c-1.5452 0-2.2119-0.75142-2.2119-2.1802v-0.39159h1.5875v0.60325c0 0.32809 0.10583 0.48683 0.41275 0.48683h0.635c0.30692 0 0.41275-0.15874 0.41275-0.48683v-0.41275c0-0.99483-3.1009-0.34924-3.1009-2.8152v-0.20109c0-1.3229 0.66675-2.1802 2.2119-2.1802h0.21167c1.5452 0 2.2119 0.75142 2.2119 2.1802v0.39159h-1.5875v-0.60325c0-0.32808-0.10583-0.48683-0.41275-0.48683h-0.635c-0.30692 0-0.41275 0.15875-0.41275 0.48683v0.41275c0 0.98424 3.1009 0.34925 3.1009 2.8152v0.20109c0 1.3229-0.66675 2.1802-2.2119 2.1802z"/><path d="m70.739 178.03c0-1.4288 0.66675-2.286 2.2119-2.286h0.26458c1.5452 0 2.2119 0.85725 2.2119 2.286v3.0056c0 1.4288-0.66675 2.286-2.2119 2.286h-0.26458c-1.5452 0-2.2119-0.85725-2.2119-2.286zm3.1009-0.3175c0-0.32808-0.10583-0.48683-0.41275-0.48683h-0.68791c-0.30692 0-0.41275 0.15875-0.41275 0.48683v3.6406c0 0.32809 0.10583 0.48683 0.41275 0.48683h0.68791c0.30692 0 0.41275-0.15874 0.41275-0.48683z"/><path d="m77.491 183.22-1.7462-7.366h1.5875l0.43392 2.0108c0.13758 0.62442 0.34925 1.7145 0.48683 2.9633h0.0635c0.13758-1.2488 0.34925-2.3389 0.48683-2.9633l0.43392-2.0108h1.5875l-1.7462 7.366z"/><path d="m82.592 175.43-1.2171-1.3547h1.4076l0.508 0.4445 0.51858-0.4445h1.4076l-1.2171 1.3547zm2.4236 3.3232v1.4817h-1.9685v1.5028h2.0743v1.4817h-3.6618v-7.366h3.6618v1.4817h-2.0743v1.4182z"/><path d="m90.72 175.85c1.5452 0 2.2119 0.85724 2.2119 2.286v2.794c0 1.4288-0.66675 2.286-2.2119 2.286h-2.5294v-7.366zm-0.94191 1.4817v4.4026h1.1536c0.30692 0 0.41275-0.15875 0.41275-0.48683v-3.429c0-0.32808-0.10583-0.48683-0.41275-0.48683z"/><path d="m93.778 178.03c0-1.4288 0.66675-2.286 2.2119-2.286h0.26458c1.5452 0 2.2119 0.85725 2.2119 2.286v3.0056c0 1.4288-0.66675 2.286-2.2119 2.286h-0.26458c-1.5452 0-2.2119-0.85725-2.2119-2.286zm3.1009-0.3175c0-0.32808-0.10583-0.48683-0.41275-0.48683h-0.68792c-0.30692 0-0.41275 0.15875-0.41275 0.48683v3.6406c0 0.32809 0.10583 0.48683 0.41275 0.48683h0.68792c0.30692 0 0.41275-0.15874 0.41275-0.48683z"/><path d="m103.01 181.31h-1.2488l-0.75142-2.1272h-0.0635c0.0529 0.60324 0.0635 1.5134 0.0635 2.0108v2.0214h-1.5875v-7.366h1.6933l1.2382 3.3972h0.0635l1.2382-3.3972h1.6933v7.366h-1.5875v-2.0214c0-0.49741 0.0106-1.4076 0.0635-2.0108h-0.0635z"/><path d="m107.54 175.43-1.2171-1.3547h1.4076l0.508 0.4445 0.51858-0.4445h1.4076l-1.2171 1.3547zm2.4236 3.3232v1.4817h-1.9685v1.5028h2.0743v1.4817h-3.6618v-7.366h3.6618v1.4817h-2.0743v1.4182z"/></g></g></g></svg>
