<?xml version="1.0" encoding="UTF-8" standalone="no"?>
<svg
   xmlns:dc="http://purl.org/dc/elements/1.1/"
   xmlns:cc="http://creativecommons.org/ns#"
   xmlns:rdf="http://www.w3.org/1999/02/22-rdf-syntax-ns#"
   xmlns:svg="http://www.w3.org/2000/svg"
   xmlns="http://www.w3.org/2000/svg"
   id="svg5955"
   version="1.1"
   viewBox="0 0 87.662712 51.436737"
   height="51.436737mm"
   width="87.662712mm">
  <defs
     id="defs5949">
    <clipPath
       clipPathUnits="userSpaceOnUse"
       id="clipPath5979">
      <path
         d="M 0,0 H 419.528 V 226.772 H 0 Z"
         id="path5977" />
    </clipPath>
    <clipPath
       clipPathUnits="userSpaceOnUse"
       id="clipPath6023">
      <path
         d="M 0,0 H 419.528 V 226.772 H 0 Z"
         id="path6021" />
    </clipPath>
  </defs>
  <metadata
     id="metadata5952">
    <rdf:RDF>
      <cc:Work
         rdf:about="">
        <dc:format>image/svg+xml</dc:format>
        <dc:type
           rdf:resource="http://purl.org/dc/dcmitype/StillImage" />
        <dc:title></dc:title>
      </cc:Work>
    </rdf:RDF>
  </metadata>
  <g
     transform="translate(-35.069741,-124.70833)"
     id="layer1">
    <g
       id="g6132">
      <path
         d="m 45.235475,139.63294 h 67.496975 v -1.71062 H 45.235475 Z"
         style="fill:#231f20;fill-opacity:1;fill-rule:nonzero;stroke:none;stroke-width:0.35277778"
         id="path5967" />
      <g
         id="g5969"
         transform="matrix(0.35277777,0,0,-0.35277777,55.969092,138.98153)">
        <path
           d="M 0,0 13.722,12.113 H 5.243 l -8.074,-7.267 -8.479,7.267 h -8.475 L -6.068,0 Z"
           style="fill:#231f20;fill-opacity:1;fill-rule:nonzero;stroke:none"
           id="path5971" />
      </g>
      <g
         id="g5981"
         transform="matrix(0.35277777,0,0,-0.35277777,104.3968,159.90221)">
        <path
           d="m 0,0 v 11.215 c 1.496,0 4.148,0.19 5.084,1.463 1.289,1.753 0.924,5.941 -1.088,12.448 -0.228,0.569 -0.461,1.132 -0.691,1.688 -2.321,5.616 -5.207,12.604 -0.871,19.991 2.837,4.836 7.982,7.609 14.115,7.609 V 43.199 c -2.143,0 -3.637,-0.697 -4.444,-2.071 -1.382,-2.357 -0.669,-4.623 1.565,-10.031 0.273,-0.662 0.551,-1.333 0.822,-2.013 l 0.147,-0.41 C 16.197,23.675 19.443,13.272 14.119,6.032 11.174,2.029 6.424,0 0,0"
           style="fill:#c51e27;fill-opacity:1;fill-rule:nonzero;stroke:none"
           id="path5983" />
      </g>
      <g
         id="g5985"
         transform="matrix(0.35277777,0,0,-0.35277777,64.255207,154.19268)">
        <path
           d="m 0,0 c -4.717,-10.299 -14.246,-16.651 -25.604,-16.651 -15.689,0 -28.78,11.549 -28.78,27.625 0,15.592 13.283,27.432 28.492,27.432 11.165,0 21.946,-6.546 25.988,-17.134 h -7.989 c -3.658,6.257 -10.684,10.299 -17.903,10.299 -11.647,0 -21.465,-8.662 -21.465,-20.502 0,-11.646 9.144,-20.886 20.887,-20.886 8.183,0 13.86,3.369 18.481,9.817 z"
           style="fill:#231f20;fill-opacity:1;fill-rule:nonzero;stroke:none"
           id="path5987" />
      </g>
      <g
         id="g5989"
         transform="matrix(0.35277777,0,0,-0.35277777,66.730013,151.23841)">
        <path
           d="m 0,0 c 0.384,-10.01 10.106,-18.192 19.828,-18.192 7.797,0 15.689,4.331 18.866,11.55 h 7.412 C 42.448,-17.23 31.667,-25.026 20.501,-25.026 c -15.4,0 -27.625,12.128 -27.625,27.529 0,15.304 12.128,27.529 27.433,27.529 8.277,0 15.882,-3.754 21.176,-10.203 C 46.394,13.764 47.453,7.604 47.645,0 Z M 40.522,6.449 C 38.694,15.786 30.127,23.197 20.405,23.197 10.491,23.197 1.732,16.171 0,6.449 Z"
           style="fill:#c51e27;fill-opacity:1;fill-rule:nonzero;stroke:none"
           id="path5991" />
      </g>
      <g
         id="g5993"
         transform="matrix(0.35277777,0,0,-0.35277777,86.379911,141.05128)">
        <path
           d="m 0,0 v -9.048 c 4.138,6.834 13.38,10.203 20.984,10.203 7.699,0 14.822,-2.984 21.56,-10.203 3.176,-2.888 6.256,-9.818 6.256,-17.519 0,-15.689 -13.185,-27.336 -28.49,-27.336 -7.797,0 -16.459,3.754 -19.925,11.07 V -71.132 H -6.737 V 0 Z m 41.677,-26.47 c 0,11.454 -9.24,20.79 -20.693,20.79 -11.551,0 -21.08,-8.566 -21.08,-20.213 0,-5.775 1.443,-10.588 5.582,-14.726 3.947,-4.14 9.337,-6.45 15.015,-6.45 11.744,0 21.176,8.759 21.176,20.599"
           style="fill:#231f20;fill-opacity:1;fill-rule:nonzero;stroke:none"
           id="path5995" />
      </g>
    </g>
  </g>
</svg>
