<?xml version="1.0" encoding="UTF-8"?>
<!-- Created with Inkscape (http://www.inkscape.org/) -->
<svg width="74.166mm" height="95.295mm" version="1.1" viewBox="0 0 74.166 95.295" xmlns="http://www.w3.org/2000/svg" xmlns:cc="http://creativecommons.org/ns#" xmlns:dc="http://purl.org/dc/elements/1.1/" xmlns:rdf="http://www.w3.org/1999/02/22-rdf-syntax-ns#">
 <metadata>
  <rdf:RDF>
   <cc:Work rdf:about="">
    <dc:format>image/svg+xml</dc:format>
    <dc:type rdf:resource="http://purl.org/dc/dcmitype/StillImage"/>
    <dc:title/>
   </cc:Work>
  </rdf:RDF>
 </metadata>
 <g transform="translate(-66.603 -36.853)">
  <g fill="#fff" stroke-width="1.0124px" aria-label="ŽUPA BARÁKOVA">
   <path d="m87.893 94.03-2.1734-2.419h2.5135l0.90714 0.79375 0.92604-0.79375h2.5135l-2.1734 2.419zm-2.2112 3.4018v-2.6458h6.9925v2.6458l-3.9687 7.8619h4.101v2.6458h-7.3138v-2.6458l3.9687-7.8619z" style="font-feature-settings:normal;font-variant-caps:normal;font-variant-ligatures:normal;font-variant-numeric:normal"/>
   <path d="m96.969 94.786v9.8274c0 0.58587 0.18899 0.86935 0.73705 0.86935h1.2284c0.54806 0 0.73705-0.28348 0.73705-0.86935v-9.8274h2.8348v9.2604c0 2.5513-1.1906 4.0821-3.9498 4.0821h-0.47247c-2.7592 0-3.9498-1.5308-3.9498-4.0821v-9.2604z" style="font-feature-settings:normal;font-variant-caps:normal;font-variant-ligatures:normal;font-variant-numeric:normal"/>
   <path d="m107.05 107.94h-2.8348v-13.154h4.4223c2.7592 0 3.9498 1.5308 3.9498 4.0821v1.0961c0 2.5513-1.1906 4.0821-3.9498 4.0821h-1.5875zm0-6.539h1.9655c0.54807 0 0.73705-0.28348 0.73705-0.86934v-2.2301c0-0.58586-0.18898-0.86934-0.73705-0.86934h-1.9655z" style="font-feature-settings:normal;font-variant-caps:normal;font-variant-ligatures:normal;font-variant-numeric:normal"/>
   <path d="m115.66 105.84-0.39687 2.0978h-2.8348l3.1183-13.154h2.8348l3.1183 13.154h-2.8348l-0.39688-2.0978zm2.1167-2.6458c-0.26458-1.3796-0.58586-2.8915-0.75595-4.1388h-0.11339c-0.17009 1.2473-0.49137 2.7592-0.75595 4.1388z" style="font-feature-settings:normal;font-variant-caps:normal;font-variant-ligatures:normal;font-variant-numeric:normal"/>
   <path d="m73.614 125.29c1.304 0.64256 1.5497 1.8899 1.5497 2.8915v0.45357c0 2.1734-1.1906 3.3262-3.9498 3.3262h-4.6113v-13.154h4.4223c2.7592 0 3.9498 1.1528 3.9498 3.3262v0.52917c0 0.86934-0.18899 2.0222-1.3607 2.6269zm-4.1766-1.115h1.9655c0.54806 0 0.73705-0.28348 0.73705-0.86934v-0.98274c0-0.58586-0.18899-0.86934-0.73705-0.86934h-1.9655zm0 2.4946v2.6458h2.1545c0.54806 0 0.73705-0.28348 0.73705-0.86935v-0.90714c0-0.58586-0.18899-0.86934-0.73705-0.86934z" style="font-feature-settings:normal;font-variant-caps:normal;font-variant-ligatures:normal;font-variant-numeric:normal"/>
   <path d="m78.971 129.86-0.39687 2.0978h-2.8348l3.1183-13.154h2.8348l3.1183 13.154h-2.8348l-0.39688-2.0978zm2.1167-2.6458c-0.26458-1.3796-0.58586-2.8915-0.75595-4.1388h-0.11339c-0.17009 1.2473-0.49137 2.7592-0.75595 4.1388z" style="font-feature-settings:normal;font-variant-caps:normal;font-variant-ligatures:normal;font-variant-numeric:normal"/>
   <path d="m94.505 131.96-1.7765-4.8381c1.0961-0.66146 1.5875-1.871 1.5875-3.5152v-0.71816c0-2.5513-1.1906-4.0821-3.9498-4.0821h-4.4223v13.154h2.8348v-4.2711h1.304l1.493 4.2711zm-5.7263-10.508h1.9655c0.54806 0 0.73705 0.28348 0.73705 0.86934v1.8521c0 0.58586-0.18899 0.86934-0.73705 0.86934h-1.9655z" style="font-feature-settings:normal;font-variant-caps:normal;font-variant-ligatures:normal;font-variant-numeric:normal"/>
   <path d="m102.34 115.63-1.9088 2.419h-2.3812l1.4552-2.419zm-4.0254 14.231-0.39687 2.0978h-2.8348l3.1183-13.154h2.8348l3.1183 13.154h-2.8348l-0.39687-2.0978zm2.1167-2.6458c-0.26459-1.3796-0.58586-2.8915-0.75595-4.1388h-0.11339c-0.17009 1.2473-0.49137 2.7592-0.75595 4.1388z" style="font-feature-settings:normal;font-variant-caps:normal;font-variant-ligatures:normal;font-variant-numeric:normal"/>
   <path d="m111.11 131.96h2.9293l-2.9104-6.8414 2.5324-6.3122h-2.9293l-2.0411 5.0838h-0.56696v-5.0838h-2.8348v13.154h2.8348v-5.424h0.68036z" style="font-feature-settings:normal;font-variant-caps:normal;font-variant-ligatures:normal;font-variant-numeric:normal"/>
   <path d="m114.44 122.7c0-2.5513 1.1906-4.0821 3.9498-4.0821h0.47247c2.7592 0 3.9498 1.5308 3.9498 4.0821v5.3672c0 2.5513-1.1906 4.0821-3.9498 4.0821h-0.47247c-2.7592 0-3.9498-1.5308-3.9498-4.0821zm5.5373-0.56697c0-0.58586-0.18899-0.86934-0.73705-0.86934h-1.2284c-0.54807 0-0.73706 0.28348-0.73706 0.86934v6.5012c0 0.58586 0.18899 0.86934 0.73706 0.86934h1.2284c0.54806 0 0.73705-0.28348 0.73705-0.86934z" style="font-feature-settings:normal;font-variant-caps:normal;font-variant-ligatures:normal;font-variant-numeric:normal"/>
   <path d="m126.51 131.96-3.1183-13.154h2.8348l0.77485 3.5908c0.24569 1.115 0.62366 3.0616 0.86935 5.2917h0.11339c0.24568-2.23 0.62366-4.1766 0.86934-5.2917l0.77485-3.5908h2.8348l-3.1183 13.154z" style="font-feature-settings:normal;font-variant-caps:normal;font-variant-ligatures:normal;font-variant-numeric:normal"/>
   <path d="m134.93 129.86-0.39687 2.0978h-2.8348l3.1183-13.154h2.8348l3.1183 13.154h-2.8348l-0.39687-2.0978zm2.1167-2.6458c-0.26459-1.3796-0.58586-2.8915-0.75595-4.1388h-0.1134c-0.17009 1.2473-0.49136 2.7592-0.75595 4.1388z" style="font-feature-settings:normal;font-variant-caps:normal;font-variant-ligatures:normal;font-variant-numeric:normal"/>
  </g>
  <g transform="translate(27.549 2.6727)">
   <g transform="matrix(.35278 0 0 -.35278 76.14 83.011)">
    <path d="m0 0c38.1 0 69.203 31.1 69.203 69.215s-31.103 69.202-69.203 69.202c-38.129 0-69.218-31.087-69.218-69.202s31.089-69.215 69.218-69.215" fill="#ed1c24"/>
   </g>
   <g transform="matrix(.35278 0 0 -.35278 76.113 82.078)">
    <path d="m0 0c36.686 0 66.629 29.933 66.629 66.644 0 36.688-29.943 66.619-66.629 66.619-36.698 0-66.644-29.931-66.644-66.619 0-36.711 29.946-66.644 66.644-66.644" fill="#fff"/>
   </g>
   <g transform="matrix(.35278 0 0 -.35278 76.205 80.184)">
    <path d="m0 0c33.844 0 61.447 27.604 61.447 61.448 0 33.845-27.603 61.449-61.447 61.449-33.858 0-61.46-27.604-61.46-61.449 0-33.844 27.602-61.448 61.46-61.448" fill="#ed1c24"/>
   </g>
   <g transform="matrix(.35278 0 0 -.35278 91.822 51.759)">
    <path d="m0 0-12.086 0.01 0.018 28.163-10.418-0.017v-32.994c-0.948 1.471-2.063 2.864-3.385 4.158-2.264 2.218-4.774 3.904-7.506 5.022-2.744 1.119-5.721 1.685-8.912 1.685-3.152 0-6.078-0.566-8.772-1.672-2.695-1.122-5.171-2.77-7.423-4.971-2.327-2.291-4.112-4.886-5.342-7.79-1.233-2.893-1.834-5.946-1.834-9.133 0-4.736 1.105-8.938 3.273-12.625l-8.119-9.775-0.022 14.515-10.924-4e-3 0.035-37.777 10.534 0.027-0.02 12.556c0.912-0.122 0.873 0.014 1.022-0.222 6.453-9.98 14.744-15.052 23.729-17.376 18.226-4.714 37.267 8.577 37.978 28.171-0.144 18.73-12.707 22.166-37.037 34.668-4.824-1.29-11.394-7.484-8.631-17.169 9.358-3.77 20.299-8.383 25.727-14.738 8e-3 -7e-3 8e-3 -0.021 0.01-0.026 1.023-0.927 2.003-3.149 2.271-4.499 0.016-0.067 0.047-0.269 0.059-0.348 0.043-0.183 0.078-0.407 0.084-0.486 0.015-0.199 0.039-0.358 0.043-0.56 0-0.119 0.015-0.063 0.015-0.186-6e-3 -0.105 0.022-0.214 0.014-0.324-6e-3 -0.638-0.016-1.267-0.125-1.933-1.86-11.185-21.377-23.729-36.553 4.026l4.764 5.577c4.207-3.724 9.263-5.6 15.172-5.6 3.435 0 6.621 0.651 9.562 1.956 0.957 0.42 1.869 0.933 2.762 1.486-2.133 2.324-5.475 4.844-8.557 6.537-1.226-0.367-2.502-0.615-3.877-0.615-3.939 0-7.25 1.404-9.933 4.184-2.682 2.794-4.024 6.263-4.024 10.362 0 2.069 0.467 4.088 1.377 6.053 0.924 1.971 2.192 3.645 3.805 5 1.23 1.032 2.572 1.82 4.025 2.364 1.436 0.529 2.953 0.797 4.514 0.797 3.826 0 7.115-1.39 9.846-4.171 0.988-1.009 1.734-2.115 2.363-3.264 3.416-1.768 8.844-4.442 11.656-6.581v0c0 3.273-0.594 6.326-1.771 9.17-0.155 0.377-0.35 0.738-0.524 1.105l21.061-0.012zm-67.061-13.01c1.135 8.759 7.87 14.386 9.653 15.733-0.612 2.222-1.053 5.23-0.789 7.23 1.24 9.379 9.631 12.863 18.148 11.348 5.836-1.046 11.324-5.008 15.51-9.587 0.053-0.06 0.103-0.093 0.156-0.15l-0.027 13.977c-19.024 13.639-38.067 8.19-46.676-3.883-5.082-7.127-5.995-16.873-2.731-25.806 1.186-3.285 3.414-6.443 6.756-8.862" fill="#fff"/>
   </g>
  </g>
 </g>
</svg>
