<?xml version="1.0" encoding="UTF-8"?>
<!-- Created with Inkscape (http://www.inkscape.org/) -->
<svg width="280.65mm" height="22.2mm" version="1.1" viewBox="0 0 280.65 22.2" xmlns="http://www.w3.org/2000/svg" xmlns:cc="http://creativecommons.org/ns#" xmlns:dc="http://purl.org/dc/elements/1.1/" xmlns:rdf="http://www.w3.org/1999/02/22-rdf-syntax-ns#">
 <metadata>
  <rdf:RDF>
   <cc:Work rdf:about="">
    <dc:format>image/svg+xml</dc:format>
    <dc:type rdf:resource="http://purl.org/dc/dcmitype/StillImage"/>
    <dc:title/>
   </cc:Work>
  </rdf:RDF>
 </metadata>
 <g transform="translate(339.14 -408.36)">
  <g fill="#e40521" stroke-width=".26458px" aria-label="NOVÃ AKCE PODLE KATEGORIE">
   <path d="m-339.14 412.63h1.27l7.8994 17.678h-1.27l-4.0894-9.1186v9.1186h-1.27v-11.989l-1.27-2.8702v14.859h-1.27zm11.709 17.678h-1.27l-7.8994-17.678h1.27l4.0894 9.1186v-9.1186h1.27v11.989l1.27 2.8702v-14.859h1.27z"/>
   <path d="m-325.16 417.86c0-3.429 1.6002-5.4864 5.3086-5.4864h0.635c3.7084 0 5.3086 2.0574 5.3086 5.4864v7.2136c0 3.429-1.6002 5.4864-5.3086 5.4864h-0.635c-3.7084 0-5.3086-2.0574-5.3086-5.4864zm1.27 7.2136c0 2.8194 0.9398 4.3434 4.0386 4.3434h0.635c3.0988 0 4.0386-1.524 4.0386-4.3434v-7.2136c0-2.8194-0.9398-4.3434-4.0386-4.3434h-0.635c-3.0988 0-4.0386 1.524-4.0386 4.3434zm1.27-7.9756c0-1.4224 0.4572-2.3114 2.2606-2.3114h1.651c1.8034 0 2.2606 0.889 2.2606 2.3114v8.7376c0 1.4224-0.4572 2.3114-2.2606 2.3114h-1.651c-1.8034 0-2.2606-0.889-2.2606-2.3114zm4.9022 0c0-0.7874-0.254-1.1684-0.9906-1.1684h-1.651c-0.7366 0-0.9906 0.381-0.9906 1.1684v8.7376c0 0.7874 0.254 1.1684 0.9906 1.1684h1.651c0.7366 0 0.9906-0.381 0.9906-1.1684z"/>
   <path d="m-311.85 412.63 4.191 17.678h-1.27l-4.191-17.678zm5.461 17.678-4.191-17.678h1.27l2.286 9.6266 2.286-9.6266h1.27l-2.921 12.319 0.635 2.6924 3.556-15.011h1.27l-4.191 17.678z"/>
   <path d="m-295.12 408.36-1.9558 3.2512h-1.27l1.9558-3.2512zm2.54 0-1.9558 3.2512h-1.27l1.9558-3.2512zm-1.2192 15.57h1.27l-2.6924-11.303h1.27l2.9464 12.446h-9.7028l2.9464-12.446h1.27zm-5.3848 0h1.27l1.4224-5.9436-0.635-2.6924zm2.54 0h1.5748l-0.7874-3.302zm-0.8382 3.556-0.6604 2.8194h-1.27l0.6604-2.8194h-1.27l-0.6604 2.8194h-1.27l0.9398-3.9624h10.312l0.9398 3.9624h-1.27l-0.6604-2.8194h-1.27l0.6604 2.8194h-1.27l-0.6604-2.8194z"/>
   <path d="m-276.04 423.93h1.27l-2.6924-11.303h1.27l2.9464 12.446h-9.7028l2.9464-12.446h1.27zm-5.3848 0h1.27l1.4224-5.9436-0.635-2.6924zm2.54 0h1.5748l-0.7874-3.302zm-0.8382 3.556-0.6604 2.8194h-1.27l0.6604-2.8194h-1.27l-0.6604 2.8194h-1.27l0.9398-3.9624h10.312l0.9398 3.9624h-1.27l-0.6604-2.8194h-1.27l0.6604 2.8194h-1.27l-0.6604-2.8194z"/>
   <path d="m-263.29 419.46 2.7432-6.8326h1.3208l-3.2004 7.9756h-8.0518v-7.9756h1.27v6.8326h1.27v-6.8326h1.27v6.8326h0.762l2.7432-6.8326h1.3208l-2.7432 6.8326zm-1.143 3.556 3.0988 7.2898h-1.3208l-3.0988-7.2898h-0.9144v7.2898h-1.27v-7.2898h-1.27v7.2898h-1.27v-8.4328h8.1788l3.5814 8.4328h-1.3208l-3.0988-7.2898z"/>
   <path d="m-256.91 425.08c0 2.8194 0.9398 4.3434 4.0386 4.3434h0.635c3.0988 0 4.0386-1.524 4.0386-4.3434v-1.4478h1.27v1.4478c0 3.429-1.6002 5.4864-5.3086 5.4864h-0.635c-3.7084 0-5.3086-2.0574-5.3086-5.4864v-7.2136c0-3.429 1.6002-5.4864 5.3086-5.4864h0.635c3.7084 0 5.3086 2.0574 5.3086 5.4864v1.4478h-1.27v-1.4478c0-2.8194-0.9398-4.3434-4.0386-4.3434h-0.635c-3.0988 0-4.0386 1.524-4.0386 4.3434zm1.27-7.9756c0-1.4224 0.4572-2.3114 2.2606-2.3114h1.651c1.8034 0 2.2606 0.889 2.2606 2.3114v2.2098h-1.27v-2.2098c0-0.7874-0.254-1.1684-0.9906-1.1684h-1.651c-0.7366 0-0.9906 0.381-0.9906 1.1684v8.7376c0 0.7874 0.254 1.1684 0.9906 1.1684h1.651c0.7366 0 0.9906-0.381 0.9906-1.1684v-2.2098h1.27v2.2098c0 1.4224-0.4572 2.3114-2.2606 2.3114h-1.651c-1.8034 0-2.2606-0.889-2.2606-2.3114z"/>
   <path d="m-244.63 412.63h8.7884v1.143h-8.7884zm0 2.413h8.7884v1.143h-4.9784v3.4036h4.7244v1.143h-8.5344zm1.27 4.5466h1.27v-3.4036h-1.27zm-1.27 2.413h8.5344v1.143h-4.7244v3.6068h4.9784v1.143h-8.7884zm1.27 4.7498h1.27v-3.6068h-1.27zm-1.27 2.413h8.7884v1.143h-8.7884z"/>
   <path d="m-224.7 430.31h-1.27v-5.2324h-1.27v5.2324h-1.27v-6.3754h5.9436c3.0988 0 4.0386-1.524 4.0386-4.3434v-1.4732c0-2.8194-0.9398-4.3434-4.0386-4.3434h-5.9436v-1.143h5.9436c3.7084 0 5.3086 2.0574 5.3086 5.4864v1.4732c0 3.429-1.6002 5.4864-5.3086 5.4864h-2.1336zm-3.81-15.265h6.4516c1.8034 0 2.2606 0.889 2.2606 2.3114v2.9972c0 1.4224-0.4572 2.3114-2.2606 2.3114h-6.4516zm2.54 1.143h-1.27v5.334h1.27zm1.27 5.334h2.6416c0.7366 0 0.9906-0.381 0.9906-1.1684v-2.9972c0-0.7874-0.254-1.1684-0.9906-1.1684h-2.6416z"/>
   <path d="m-215.72 417.86c0-3.429 1.6002-5.4864 5.3086-5.4864h0.635c3.7084 0 5.3086 2.0574 5.3086 5.4864v7.2136c0 3.429-1.6002 5.4864-5.3086 5.4864h-0.635c-3.7084 0-5.3086-2.0574-5.3086-5.4864zm1.27 7.2136c0 2.8194 0.9398 4.3434 4.0386 4.3434h0.635c3.0988 0 4.0386-1.524 4.0386-4.3434v-7.2136c0-2.8194-0.9398-4.3434-4.0386-4.3434h-0.635c-3.0988 0-4.0386 1.524-4.0386 4.3434zm1.27-7.9756c0-1.4224 0.4572-2.3114 2.2606-2.3114h1.651c1.8034 0 2.2606 0.889 2.2606 2.3114v8.7376c0 1.4224-0.4572 2.3114-2.2606 2.3114h-1.651c-1.8034 0-2.2606-0.889-2.2606-2.3114zm4.9022 0c0-0.7874-0.254-1.1684-0.9906-1.1684h-1.651c-0.7366 0-0.9906 0.381-0.9906 1.1684v8.7376c0 0.7874 0.254 1.1684 0.9906 1.1684h1.651c0.7366 0 0.9906-0.381 0.9906-1.1684z"/>
   <path d="m-202.17 429.17h6.0706c3.0988 0 4.0386-1.524 4.0386-4.3434v-6.7056c0-2.8194-0.9398-4.3434-4.0386-4.3434h-6.0706v-1.143h6.0706c3.7084 0 5.3086 2.0574 5.3086 5.4864v6.7056c0 3.429-1.6002 5.4864-5.3086 5.4864h-6.0706zm0-14.122h6.5786c1.8034 0 2.2606 0.889 2.2606 2.3114v8.2296c0 1.4224-0.4572 2.3114-2.2606 2.3114h-6.5786zm1.27 1.143v10.566h1.27v-10.566zm2.54 10.566h2.7686c0.7366 0 0.9906-0.381 0.9906-1.1684v-8.2296c0-0.7874-0.254-1.1684-0.9906-1.1684h-2.7686z"/>
   <path d="m-185.99 412.63h1.27v14.122h4.2164v1.143h-8.0264v-15.265h1.27v14.122h1.27zm-2.54 16.535h8.0264v1.143h-8.0264z"/>
   <path d="m-178.45 412.63h8.7884v1.143h-8.7884zm0 2.413h8.7884v1.143h-4.9784v3.4036h4.7244v1.143h-8.5344zm1.27 4.5466h1.27v-3.4036h-1.27zm-1.27 2.413h8.5344v1.143h-4.7244v3.6068h4.9784v1.143h-8.7884zm1.27 4.7498h1.27v-3.6068h-1.27zm-1.27 2.413h8.7884v1.143h-8.7884z"/>
   <path d="m-155.14 419.46 2.7432-6.8326h1.3208l-3.2004 7.9756h-8.0518v-7.9756h1.27v6.8326h1.27v-6.8326h1.27v6.8326h0.762l2.7432-6.8326h1.3208l-2.7432 6.8326zm-1.143 3.556 3.0988 7.2898h-1.3208l-3.0988-7.2898h-0.9144v7.2898h-1.27v-7.2898h-1.27v7.2898h-1.27v-8.4328h8.1788l3.5814 8.4328h-1.3208l-3.0988-7.2898z"/>
   <path d="m-141.65 423.93h1.27l-2.6924-11.303h1.27l2.9464 12.446h-9.7028l2.9464-12.446h1.27zm-5.3848 0h1.27l1.4224-5.9436-0.635-2.6924zm2.54 0h1.5748l-0.7874-3.302zm-0.8382 3.556-0.6604 2.8194h-1.27l0.6604-2.8194h-1.27l-0.6604 2.8194h-1.27l0.9398-3.9624h10.312l0.9398 3.9624h-1.27l-0.6604-2.8194h-1.27l0.6604 2.8194h-1.27l-0.6604-2.8194z"/>
   <path d="m-138.14 412.63h9.4488v1.143h-9.4488zm0 2.413h9.4488v1.143h-2.8194v14.122h-1.27v-14.122h-1.27v14.122h-1.27v-14.122h-2.8194z"/>
   <path d="m-126.91 412.63h8.7884v1.143h-8.7884zm0 2.413h8.7884v1.143h-4.9784v3.4036h4.7244v1.143h-8.5344zm1.27 4.5466h1.27v-3.4036h-1.27zm-1.27 2.413h8.5344v1.143h-4.7244v3.6068h4.9784v1.143h-8.7884zm1.27 4.7498h1.27v-3.6068h-1.27zm-1.27 2.413h8.7884v1.143h-8.7884z"/>
   <path d="m-104.85 423.07v2.0066c0 3.429-1.6002 5.4864-5.3086 5.4864h-0.635c-3.7084 0-5.3086-2.0574-5.3086-5.4864v-7.2136c0-3.429 1.6002-5.4864 5.3086-5.4864h0.635c3.7084 0 5.3086 2.0574 5.3086 5.4864v0.9398h-1.27v-0.9398c0-2.8194-0.9398-4.3434-4.0386-4.3434h-0.635c-3.0988 0-4.0386 1.524-4.0386 4.3434v7.2136c0 2.8194 0.9398 4.3434 4.0386 4.3434h0.635c3.0988 0 4.0386-1.524 4.0386-4.3434v-0.8636h-1.27v1.6256c0 1.4224-0.4572 2.3114-2.2606 2.3114h-1.651c-1.8034 0-2.2606-0.889-2.2606-2.3114v-8.7376c0-1.4224 0.4572-2.3114 2.2606-2.3114h1.651c1.8034 0 2.2606 0.889 2.2606 2.3114v1.7018h-1.27v-1.7018c0-0.7874-0.254-1.1684-0.9906-1.1684h-1.651c-0.7366 0-0.9906 0.381-0.9906 1.1684v8.7376c0 0.7874 0.254 1.1684 0.9906 1.1684h1.651c0.7366 0 0.9906-0.381 0.9906-1.1684v-1.6256h-1.905v-1.143zm-5.715-2.413h5.715v1.143h-5.715z"/>
   <path d="m-102.81 417.86c0-3.429 1.6002-5.4864 5.3086-5.4864h0.635c3.7084 0 5.3086 2.0574 5.3086 5.4864v7.2136c0 3.429-1.6002 5.4864-5.3086 5.4864h-0.635c-3.7084 0-5.3086-2.0574-5.3086-5.4864zm1.27 7.2136c0 2.8194 0.9398 4.3434 4.0386 4.3434h0.635c3.0988 0 4.0386-1.524 4.0386-4.3434v-7.2136c0-2.8194-0.9398-4.3434-4.0386-4.3434h-0.635c-3.0988 0-4.0386 1.524-4.0386 4.3434zm1.27-7.9756c0-1.4224 0.4572-2.3114 2.2606-2.3114h1.651c1.8034 0 2.2606 0.889 2.2606 2.3114v8.7376c0 1.4224-0.4572 2.3114-2.2606 2.3114h-1.651c-1.8034 0-2.2606-0.889-2.2606-2.3114zm4.9022 0c0-0.7874-0.254-1.1684-0.9906-1.1684h-1.651c-0.7366 0-0.9906 0.381-0.9906 1.1684v8.7376c0 0.7874 0.254 1.1684 0.9906 1.1684h1.651c0.7366 0 0.9906-0.381 0.9906-1.1684z"/>
   <path d="m-77.751 430.31h-1.27l-2.2098-6.0198c-0.381 0.1016-0.7874 0.1778-1.2192 0.2286l2.032 5.7912h-1.27l-2.0066-5.7404h-1.7526v5.7404h-1.27v-5.7404h-1.27v5.7404h-1.27v-6.8834h5.9436c3.0988 0 4.0386-1.524 4.0386-4.3434v-0.9652c0-2.8194-0.9398-4.3434-4.0386-4.3434h-5.9436v-1.143h5.9436c3.7084 0 5.3086 2.0574 5.3086 5.4864v0.9652c0 2.2098-0.6604 3.8354-2.1336 4.7244zm-11.506-15.265h6.4516c1.8034 0 2.2606 0.889 2.2606 2.3114v2.4892c0 1.4224-0.4572 2.3114-2.2606 2.3114h-6.4516zm1.27 5.969h1.27v-4.826h-1.27zm2.54 0h2.6416c0.7366 0 0.9906-0.381 0.9906-1.1684v-2.4892c0-0.7874-0.254-1.1684-0.9906-1.1684h-2.6416z"/>
   <path d="m-76.724 412.63h7.6708v1.143h-7.6708zm0 2.413h7.6708v1.143h-1.9304v10.566h1.9304v1.143h-7.6708v-1.143h1.9304v-10.566h-1.9304zm3.2004 11.709h1.27v-10.566h-1.27zm-3.2004 2.413h7.6708v1.143h-7.6708z"/>
   <path d="m-67.28 412.63h8.7884v1.143h-8.7884zm0 2.413h8.7884v1.143h-4.9784v3.4036h4.7244v1.143h-8.5344zm1.27 4.5466h1.27v-3.4036h-1.27zm-1.27 2.413h8.5344v1.143h-4.7244v3.6068h4.9784v1.143h-8.7884zm1.27 4.7498h1.27v-3.6068h-1.27zm-1.27 2.413h8.7884v1.143h-8.7884z"/>
  </g>
 </g>
</svg>
