<?xml version="1.0" encoding="UTF-8" standalone="no"?>
<svg
   xmlns:dc="http://purl.org/dc/elements/1.1/"
   xmlns:cc="http://creativecommons.org/ns#"
   xmlns:rdf="http://www.w3.org/1999/02/22-rdf-syntax-ns#"
   xmlns:svg="http://www.w3.org/2000/svg"
   xmlns="http://www.w3.org/2000/svg"
   
   version="1.1"
   viewBox="0 0 204.38614 51.026375"
   height="51.026375mm"
   width="204.38614mm">
  <defs
     >
    <clipPath
       clipPathUnits="userSpaceOnUse"
       >
      <path
         d="M 131.264,225.32 H 710.626 V 369.962 H 131.264 Z"
          />
    </clipPath>
    <clipPath
       clipPathUnits="userSpaceOnUse"
       >
      <path
         d="M 131.264,225.32 H 710.626 V 369.962 H 131.264 Z"
          />
    </clipPath>
    <clipPath
       clipPathUnits="userSpaceOnUse"
       >
      <path
         d="M 131.264,225.32 H 710.626 V 369.962 H 131.264 Z"
          />
    </clipPath>
    <clipPath
       clipPathUnits="userSpaceOnUse"
       >
      <path
         d="M 131.264,225.32 H 710.626 V 369.962 H 131.264 Z"
          />
    </clipPath>
  </defs>
  <metadata
     >
    <rdf:RDF>
      <cc:Work
         rdf:about="">
        <dc:format>image/svg+xml</dc:format>
        <dc:type
           rdf:resource="http://purl.org/dc/dcmitype/StillImage" />
        <dc:title></dc:title>
      </cc:Work>
    </rdf:RDF>
  </metadata>
  <g
     transform="translate(-3.6402634,-123.32015)"
     >
    <g
       
       transform="matrix(0.35277777,0,0,-0.35277777,-42.666652,253.83406)">
      <path
         d="M 356.278,225.319 H 710.626 V 369.735 H 356.278 Z"
         style="fill:#231f20;fill-opacity:1;fill-rule:nonzero;stroke:none"
          />
      <g
         
         transform="translate(131.2637,369.9607)">
        <path
           d="M 0,0 V -144.572 H 225.35 L 260.715,-71.734 225.35,0 Z"
           style="fill:#df2235;fill-opacity:1;fill-rule:nonzero;stroke:none"
            />
      </g>
      <g
         >
        <g
           
           clip-path="url(#clipPath5626)">
          <g
             
             transform="translate(297.4868,293.82)">
            <path
               d="m 0,0 c 0.55,13.319 -3.269,24.883 -12.278,34.634 l -5.387,-2.486 15.343,-33.223 -7.399,-3.416 -15.347,33.219 -5.594,-2.583 15.343,-33.221 -7.401,-3.416 -18.775,40.645 c 2.047,0.949 27.757,12.821 27.757,12.821 l 2.366,1.094 C 0.869,33.508 6.946,19.871 7.4,3.419 4.932,2.279 2.468,1.136 0,0 m -64.23,-9.609 4.238,-9.175 -5.857,-2.707 -2.424,5.25 -7.408,-3.42 5.856,-12.681 c 6.892,3.186 13.782,6.366 20.664,9.548 l -11.09,24.008 -13.267,-6.1 -4.242,9.185 5.856,2.704 2.417,-5.236 7.401,3.419 -5.85,12.67 C -74.818,14.674 -81.71,11.493 -88.603,8.308 l 11.108,-24.044 c 4.435,2.047 8.841,4.083 13.265,6.127 m 14.313,15.626 5.598,2.587 -16.584,35.896 -5.595,-2.588 z m 9.028,-4.846 -5.596,-2.584 20,-43.291 c -2.479,-1.146 -4.943,-2.287 -7.412,-3.425 l -0.084,0.191 c -23.7,-5.24 -48.681,6.504 -59.28,29.446 -10.093,21.85 -3.999,47.03 13.301,62.032 l 2.774,-6.005 C -91.366,24.216 -96.137,2.802 -87.527,-15.84 c 9.131,-19.759 30.369,-30.079 50.823,-26.21 l -40.633,87.97 c 6.803,3.143 13.604,6.286 20.407,9.426 l 40.653,-88.009 c 8.901,7.115 14.723,17.18 16.696,28.084 l 6.803,3.142 C 5.807,-15.933 -1.568,-29.533 -13.56,-38.546 l 0.072,-0.158 c -2.467,-1.137 -4.932,-2.276 -7.402,-3.416 z m -12.396,54.698 c 13.428,2.052 27.038,-1.236 37.988,-8.791 l -6.818,-3.157 c -8.502,4.899 -18.458,7.059 -28.397,5.945 z"
               style="fill:#ffffff;fill-opacity:1;fill-rule:nonzero;stroke:none"
                />
          </g>
          <g
             
             transform="translate(432.6729,321.9641)">
            <path
               d="m 0,0 c -1.996,0 -3.311,-0.726 -3.311,-2.177 0,-5.262 16.737,-2.268 16.737,-13.698 0,-6.486 -5.715,-9.797 -12.791,-9.797 -5.307,0 -10.841,1.95 -14.651,5.08 l 3.221,6.486 c 3.266,-2.812 8.209,-4.808 11.522,-4.808 2.448,0 3.99,0.907 3.99,2.585 0,5.397 -16.737,2.132 -16.737,13.381 0,5.941 5.035,9.706 12.7,9.706 4.673,0 9.389,-1.452 12.7,-3.583 L 10.25,-3.402 C 6.895,-1.497 2.63,0 0,0"
               style="fill:#ffffff;fill-opacity:1;fill-rule:nonzero;stroke:none"
                />
          </g>
        </g>
      </g>
      <g
         
         transform="translate(471.3623,302.1887)">
        <path
           d="m 0,0 h -13.743 l -2.223,-5.625 h -8.526 l 13.651,31.795 h 8.528 L 11.021,-5.625 H 2.177 Z M -2.449,6.35 -6.804,17.689 -11.248,6.35 Z"
           style="fill:#ffffff;fill-opacity:1;fill-rule:nonzero;stroke:none"
            />
      </g>
      <g
         
         transform="translate(494.3115,328.3591)">
        <path
           d="M 0,0 8.437,-18.551 16.873,0 h 9.071 V -31.795 H 18.596 L 18.551,-11.656 11.158,-28.62 H 5.715 l -7.393,16.964 V -31.795 H -9.072 V 0 Z"
           style="fill:#ffffff;fill-opacity:1;fill-rule:nonzero;stroke:none"
            />
      </g>
      <g
         
         transform="translate(549.6914,328.3591)">
        <path
           d="m 0,0 v -5.76 l -11.657,-26.035 h -8.753 l 11.248,25.128 h -8.391 v -4.445 h -7.348 V 0 Z"
           style="fill:#ffffff;fill-opacity:1;fill-rule:nonzero;stroke:none"
            />
      </g>
      <g
         >
        <g
           
           clip-path="url(#clipPath5654)">
          <g
             
             transform="translate(574.4551,306.5427)">
            <path
               d="m 0,0 c 0,-6.078 -4.763,-10.341 -12.202,-10.341 -4.399,0 -9.025,1.541 -11.928,3.9 l 3.312,6.396 c 2.357,-2.586 5.125,-3.946 7.937,-3.946 3.083,0 4.762,1.451 4.716,3.946 0,2.54 -1.678,3.81 -4.716,3.81 h -5.172 V 8.21 l 6.986,7.121 h -11.476 v 6.395 H -1.497 V 16.918 L -9.299,8.981 -7.802,8.708 C -3.266,7.983 0,4.899 0,0"
               style="fill:#ffffff;fill-opacity:1;fill-rule:nonzero;stroke:none"
                />
          </g>
          <g
             
             transform="translate(585.25,300.1472)">
            <path
               d="m 0,0 c 0,-2.313 -1.634,-3.946 -3.901,-3.946 -2.268,0 -3.856,1.633 -3.856,3.946 0,2.313 1.588,3.901 3.856,3.901 C -1.634,3.901 0,2.313 0,0"
               style="fill:#ffffff;fill-opacity:1;fill-rule:nonzero;stroke:none"
                />
          </g>
          <g
             
             transform="translate(605.1152,321.5554)">
            <path
               d="m 0,0 c -4.898,0 -8.617,-3.855 -8.617,-8.935 0,-5.126 3.719,-9.026 8.617,-9.026 2.63,0 5.67,1.451 7.893,3.719 l 4.852,-5.216 c -3.4,-3.583 -8.481,-5.896 -13.199,-5.896 -9.569,0 -16.691,6.985 -16.691,16.328 0,9.162 7.303,16.057 17.009,16.057 4.717,0 9.661,-2.087 12.836,-5.444 L 7.893,-4.173 C 5.807,-1.633 2.768,0 0,0"
               style="fill:#ffffff;fill-opacity:1;fill-rule:nonzero;stroke:none"
                />
          </g>
        </g>
      </g>
      <g
         
         transform="translate(647.4316,328.3591)">
        <path
           d="M 0,0 V -5.443 L -16.781,-25.127 H 0.272 v -6.668 h -28.167 v 5.398 l 16.783,19.73 H -27.305 V 0 Z"
           style="fill:#ffffff;fill-opacity:1;fill-rule:nonzero;stroke:none"
            />
      </g>
      <g
         >
        <g
           
           clip-path="url(#clipPath5678)">
          <g
             
             transform="translate(427.3379,279.8484)">
            <path
               d="m 0,0 c -1.405,0 -2.478,-0.5 -2.478,-1.691 0,-2.834 7.002,-1.381 7.002,-5.882 0,-2.454 -2.19,-3.549 -4.595,-3.549 -1.787,0 -3.621,0.619 -4.812,1.762 l 0.714,1.358 c 1.072,-1.001 2.691,-1.596 4.169,-1.596 1.477,0 2.667,0.572 2.69,1.834 0.073,3.048 -6.954,1.5 -6.929,5.93 0,2.382 2.07,3.406 4.357,3.406 1.5,0 2.953,-0.453 4.001,-1.144 L 3.405,-1 C 2.429,-0.381 1.167,0 0,0"
               style="fill:#ffffff;fill-opacity:1;fill-rule:nonzero;stroke:none"
                />
          </g>
          <g
             
             transform="translate(441.3867,269.655)">
            <path
               d="M 0,0 C -0.881,-0.596 -1.834,-0.929 -2.834,-0.929 -4.668,-0.952 -6.026,0.143 -6.026,2.62 v 7.216 h -1.809 v 1.453 h 1.809 v 3.287 h 1.834 v -3.287 h 3.978 V 9.836 H -4.192 V 2.929 c 0,-1.525 0.595,-2.143 1.667,-2.143 0.644,0.024 1.31,0.237 2.001,0.643 z"
               style="fill:#ffffff;fill-opacity:1;fill-rule:nonzero;stroke:none"
                />
          </g>
          <g
             
             transform="translate(450.5537,281.3962)">
            <path
               d="m 0,0 v -1.81 c -2.644,0.048 -4.287,-1.596 -4.501,-4.12 v -6.669 h -1.857 v 12.527 h 1.857 V -2.857 C -3.667,-1.023 -2.118,-0.023 0,0"
               style="fill:#ffffff;fill-opacity:1;fill-rule:nonzero;stroke:none"
                />
          </g>
          <g
             
             transform="translate(463.8662,274.3698)">
            <path
               d="m 0,0 h -10.241 c 0.308,-2.477 2.095,-4.096 4.549,-4.096 1.547,0 2.905,0.572 3.881,1.596 l 1.025,-1.071 c -1.192,-1.311 -2.953,-2.073 -5.049,-2.073 -3.691,0 -6.24,2.596 -6.24,6.335 0,3.74 2.571,6.312 6.216,6.335 C -1.811,7.026 0.189,4.24 0,0 m -1.667,1.478 c -0.119,2.428 -1.739,4.001 -4.192,4.001 -2.407,0 -4.12,-1.573 -4.382,-4.001 z"
               style="fill:#ffffff;fill-opacity:1;fill-rule:nonzero;stroke:none"
                />
          </g>
          <g
             
             transform="translate(477.8672,274.3698)">
            <path
               d="m 0,0 h -10.24 c 0.308,-2.477 2.094,-4.096 4.548,-4.096 1.547,0 2.906,0.572 3.881,1.596 l 1.025,-1.071 c -1.192,-1.311 -2.953,-2.073 -5.048,-2.073 -3.692,0 -6.241,2.596 -6.241,6.335 0,3.74 2.573,6.312 6.216,6.335 C -1.811,7.026 0.19,4.24 0,0 m -1.667,1.478 c -0.119,2.428 -1.739,4.001 -4.192,4.001 -2.406,0 -4.12,-1.573 -4.381,-4.001 z"
               style="fill:#ffffff;fill-opacity:1;fill-rule:nonzero;stroke:none"
                />
          </g>
          <g
             
             transform="translate(487.5342,269.655)">
            <path
               d="M 0,0 C -0.882,-0.596 -1.834,-0.929 -2.834,-0.929 -4.668,-0.952 -6.026,0.143 -6.026,2.62 v 7.216 h -1.809 v 1.453 h 1.809 v 3.287 h 1.834 v -3.287 h 3.977 V 9.836 H -4.192 V 2.929 c 0,-1.525 0.595,-2.143 1.667,-2.143 0.643,0.024 1.309,0.237 2.001,0.643 z"
               style="fill:#ffffff;fill-opacity:1;fill-rule:nonzero;stroke:none"
                />
          </g>
          <g
             
             transform="translate(509.5127,268.5124)">
            <path
               d="M 0,0 -2.786,2.762 C -4.311,1.119 -6.072,0.214 -7.955,0.214 c -2.762,0 -4.954,1.929 -4.954,4.549 0,2.405 1.835,3.667 3.787,4.716 -1.143,1.5 -1.714,2.761 -1.714,3.977 0,2.071 1.644,3.571 4.072,3.571 2.31,0 3.859,-1.381 3.859,-3.334 0,-2.262 -2.049,-3.429 -4.145,-4.548 1.025,-1.191 2.382,-2.573 4.097,-4.24 0.619,0.906 1.19,2 1.691,3.24 L 0,7.191 C -0.548,5.93 -1.19,4.787 -1.882,3.834 L 1,1 Z m -3.835,3.786 c -1.856,1.858 -3.357,3.382 -4.477,4.692 -1.643,-0.906 -3.025,-1.929 -3.025,-3.596 0,-1.881 1.524,-3.215 3.453,-3.215 1.429,0 2.835,0.762 4.049,2.119 m -4.024,6.359 c 1.834,0.953 3.429,1.858 3.429,3.548 0,1.239 -0.905,2.097 -2.334,2.097 -1.548,0 -2.548,-1.024 -2.548,-2.334 0,-0.977 0.5,-2.025 1.453,-3.311"
               style="fill:#ffffff;fill-opacity:1;fill-rule:nonzero;stroke:none"
                />
          </g>
          <g
             
             transform="translate(523.2979,279.8484)">
            <path
               d="m 0,0 c -1.405,0 -2.478,-0.5 -2.478,-1.691 0,-2.834 7.002,-1.381 7.002,-5.882 0,-2.454 -2.19,-3.549 -4.595,-3.549 -1.787,0 -3.62,0.619 -4.811,1.762 l 0.715,1.358 c 1.07,-1.001 2.689,-1.596 4.167,-1.596 1.477,0 2.668,0.572 2.69,1.834 0.073,3.048 -6.954,1.5 -6.929,5.93 0,2.382 2.072,3.406 4.358,3.406 1.501,0 2.952,-0.453 4.001,-1.144 L 3.405,-1 C 2.429,-0.381 1.167,0 0,0"
               style="fill:#ffffff;fill-opacity:1;fill-rule:nonzero;stroke:none"
                />
          </g>
          <g
             
             transform="translate(543.7061,275.0378)">
            <path
               d="m 0,0 c 0,-3.717 -2.429,-6.312 -5.978,-6.312 -2.239,0 -3.954,1.024 -4.882,2.764 v -7.312 h -1.858 V 6.287 h 1.858 V 3.596 c 0.928,1.738 2.643,2.762 4.834,2.762 C -2.477,6.358 0,3.738 0,0 m -1.882,0.048 c 0,2.715 -1.858,4.715 -4.477,4.715 -2.644,0 -4.501,-1.976 -4.501,-4.715 0,-2.763 1.857,-4.716 4.501,-4.716 2.619,0 4.477,1.977 4.477,4.716"
               style="fill:#ffffff;fill-opacity:1;fill-rule:nonzero;stroke:none"
                />
          </g>
          <g
             
             transform="translate(558.4209,275.0847)">
            <path
               d="m 0,0 c 0,-3.739 -2.643,-6.358 -6.358,-6.358 -3.74,0 -6.36,2.619 -6.36,6.358 0,3.716 2.62,6.312 6.36,6.312 C -2.643,6.312 0,3.716 0,0 m -10.859,-0.023 c 0,-2.811 1.856,-4.715 4.501,-4.715 2.62,0 4.501,1.904 4.501,4.715 0,2.762 -1.881,4.691 -4.501,4.691 -2.645,0 -4.501,-1.929 -4.501,-4.691"
               style="fill:#ffffff;fill-opacity:1;fill-rule:nonzero;stroke:none"
                />
          </g>
          <g
             
             transform="translate(568.04,281.3962)">
            <path
               d="m 0,0 v -1.81 c -2.643,0.048 -4.286,-1.596 -4.501,-4.12 v -6.669 h -1.858 v 12.527 h 1.858 V -2.857 C -3.667,-1.023 -2.119,-0.023 0,0"
               style="fill:#ffffff;fill-opacity:1;fill-rule:nonzero;stroke:none"
                />
          </g>
          <g
             
             transform="translate(577.0176,269.655)">
            <path
               d="M 0,0 C -0.882,-0.596 -1.834,-0.929 -2.834,-0.929 -4.668,-0.952 -6.025,0.143 -6.025,2.62 v 7.216 h -1.81 v 1.453 h 1.81 v 3.287 h 1.834 v -3.287 h 3.976 V 9.836 H -4.191 V 2.929 c 0,-1.525 0.594,-2.143 1.667,-2.143 0.642,0.024 1.309,0.237 2,0.643 z"
               style="fill:#ffffff;fill-opacity:1;fill-rule:nonzero;stroke:none"
                />
          </g>
          <g
             
             transform="translate(583.041,279.8484)">
            <path
               d="m 0,0 c -1.405,0 -2.477,-0.5 -2.477,-1.691 0,-2.834 7.002,-1.381 7.002,-5.882 0,-2.454 -2.191,-3.549 -4.596,-3.549 -1.787,0 -3.62,0.619 -4.811,1.762 l 0.715,1.358 c 1.071,-1.001 2.69,-1.596 4.167,-1.596 1.478,0 2.667,0.572 2.691,1.834 0.072,3.048 -6.954,1.5 -6.93,5.93 0,2.382 2.072,3.406 4.358,3.406 1.5,0 2.953,-0.453 4.001,-1.144 L 3.406,-1 C 2.429,-0.381 1.167,0 0,0"
               style="fill:#ffffff;fill-opacity:1;fill-rule:nonzero;stroke:none"
                />
          </g>
        </g>
      </g>
      <g
         
         transform="translate(590.3271,281.3249)">
        <path
           d="M 0,0 3.715,-10.646 7.359,0 H 9.313 L 13.003,-10.646 16.671,0 H 18.6 L 13.956,-12.527 H 12.027 L 8.335,-2.263 4.668,-12.527 H 2.738 L -1.953,0 Z"
           style="fill:#ffffff;fill-opacity:1;fill-rule:nonzero;stroke:none"
            />
      </g>
      <g
         >
        <g
           
           clip-path="url(#clipPath5742)">
          <g
             
             transform="translate(621.5225,274.3698)">
            <path
               d="m 0,0 h -10.241 c 0.309,-2.477 2.095,-4.096 4.549,-4.096 1.547,0 2.906,0.572 3.881,1.596 l 1.025,-1.071 c -1.192,-1.311 -2.953,-2.073 -5.049,-2.073 -3.691,0 -6.24,2.596 -6.24,6.335 0,3.74 2.572,6.312 6.216,6.335 C -1.811,7.026 0.189,4.24 0,0 m -1.667,1.478 c -0.119,2.428 -1.739,4.001 -4.192,4.001 -2.406,0 -4.12,-1.573 -4.382,-4.001 z"
               style="fill:#ffffff;fill-opacity:1;fill-rule:nonzero;stroke:none"
                />
          </g>
          <g
             
             transform="translate(632.499,268.7976)">
            <path
               d="m 0,0 v 1.953 c -1,-1.357 -2.596,-2.025 -4.596,-2.025 -2.596,0 -4.263,1.644 -4.263,3.787 0,2.191 1.738,3.573 4.692,3.597 h 4.119 v 0.786 c 0,1.834 -1.141,2.953 -3.358,2.953 -1.381,0 -2.667,-0.524 -3.976,-1.452 l -0.787,1.309 c 1.62,1.071 2.977,1.692 5.121,1.692 3.096,0 4.811,-1.645 4.835,-4.312 L 1.812,0 Z m -0.024,4.312 v 1.523 h -3.905 c -2.097,0 -3.192,-0.643 -3.192,-2.049 0,-1.381 1.119,-2.308 2.882,-2.308 2.12,0 3.739,1.046 4.215,2.834"
               style="fill:#ffffff;fill-opacity:1;fill-rule:nonzero;stroke:none"
                />
          </g>
          <g
             
             transform="translate(644.8096,281.3962)">
            <path
               d="m 0,0 v -1.81 c -2.644,0.048 -4.286,-1.596 -4.501,-4.12 v -6.669 h -1.858 v 12.527 h 1.858 V -2.857 C -3.667,-1.023 -2.119,-0.023 0,0"
               style="fill:#ffffff;fill-opacity:1;fill-rule:nonzero;stroke:none"
                />
          </g>
        </g>
      </g>
    </g>
  </g>
</svg>
