<?xml version="1.0" encoding="UTF-8" standalone="no"?>
<!-- Created with Inkscape (http://www.inkscape.org/) -->

<svg
   xmlns:dc="http://purl.org/dc/elements/1.1/"
   xmlns:cc="http://creativecommons.org/ns#"
   xmlns:rdf="http://www.w3.org/1999/02/22-rdf-syntax-ns#"
   xmlns:svg="http://www.w3.org/2000/svg"
   xmlns="http://www.w3.org/2000/svg"
   xmlns:sodipodi="http://sodipodi.sourceforge.net/DTD/sodipodi-0.dtd"
   xmlns:inkscape="http://www.inkscape.org/namespaces/inkscape"
   width="488.1832mm"
   height="76.798309mm"
   viewBox="0 0 1729.783 272.11999"
   id="svg2"
   version="1.1"
   inkscape:version="0.91 r13725"
   sodipodi:docname="jipast.svg">
  <defs
     id="defs4" />
  <sodipodi:namedview
     id="base"
     pagecolor="#ffffff"
     bordercolor="#666666"
     borderopacity="1.0"
     inkscape:pageopacity="0.0"
     inkscape:pageshadow="2"
     inkscape:zoom="0.49497475"
     inkscape:cx="497.13173"
     inkscape:cy="-218.65903"
     inkscape:document-units="px"
     inkscape:current-layer="layer1"
     showgrid="false"
     fit-margin-top="0"
     fit-margin-left="0"
     fit-margin-right="0"
     fit-margin-bottom="0"
     inkscape:window-width="1855"
     inkscape:window-height="951"
     inkscape:window-x="65"
     inkscape:window-y="24"
     inkscape:window-maximized="1" />
  <metadata
     id="metadata7">
    <rdf:RDF>
      <cc:Work
         rdf:about="">
        <dc:format>image/svg+xml</dc:format>
        <dc:type
           rdf:resource="http://purl.org/dc/dcmitype/StillImage" />
        <dc:title></dc:title>
      </cc:Work>
    </rdf:RDF>
  </metadata>
  <g
     inkscape:label="Vrstva 1"
     inkscape:groupmode="layer"
     id="layer1"
     transform="translate(-114.75734,-128.2031)">
    <path
       style="fill:#29166f;fill-opacity:1"
       d="m 210.7234,399.35979 c -26.46917,-3.0713 -50.34474,-14.7234 -68.24846,-33.30759 -14.19731,-14.73692 -22.06826,-29.44954 -26.44329,-49.42865 -1.73813,-7.93739 -1.68143,-95.90883 0.0675,-104.72087 6.42356,-32.36541 29.56077,-60.01261 61.88559,-73.94861 9.60783,-4.14217 22.82534,-7.73078 31.41385,-8.52899 l 6.15025,-0.57161 0.009,74.19394 c 0.009,76.49639 0.45003,88.9813 3.62531,102.36609 7.99748,33.71189 30.53929,63.75123 66.18094,88.19312 4.18436,2.8695 7.99056,5.55181 8.45823,5.9607 1.07853,0.94297 -74.81594,0.7534 -83.09754,-0.20765 z m 264.39,-135.09667 0,-136.06002 637.4996,0.24345 637.4995,0.24346 8.2955,1.93384 c 11.7606,2.7416 16.4415,4.37328 26.6115,9.27606 13.2431,6.38431 19.5376,10.8612 30.0465,21.3701 13.4264,13.42629 20.6766,25.30865 25.4106,41.64475 3.5463,12.23731 4.0637,20.04889 4.0637,61.34836 0,41.29946 -0.5174,49.11104 -4.0637,61.34835 -4.734,16.3361 -11.9842,28.21843 -25.4106,41.64475 -10.5089,10.50887 -16.8034,14.98579 -30.0465,21.37007 -10.17,4.90282 -14.8509,6.53449 -26.6115,9.27606 l -8.2955,1.93385 -637.4995,0.24345 -637.4996,0.24345 0,-136.06001 z m 149.05552,109.13535 c 27.93848,-3.88589 47.1926,-16.15709 56.78199,-36.18876 7.03527,-14.69631 6.63494,-9.08011 7.16144,-100.47154 0.25867,-44.92152 0.33627,-82.0773 0.17215,-82.56838 -0.19273,-0.57671 -14.99916,-0.8929 -41.81254,-0.8929 l -41.51419,0 -0.25479,70.03768 -0.25479,70.03768 -2.05969,4.47525 c -6.26341,13.60882 -18.5157,18.1265 -46.49679,17.1443 l -15.43961,-0.54195 0,28.03953 0,28.03957 10.96436,1.15062 c 25.4165,2.66725 60.1151,3.4966 72.75249,1.7389 z m 810.88588,-1.21789 c 15.1627,-2.79927 24.9021,-5.87705 36.2496,-11.45536 10.0394,-4.93531 11.9718,-6.28696 18.8214,-13.16518 8.6801,-8.71624 13.3419,-16.6053 16.0068,-27.08735 5.6293,-22.14292 1.4212,-44.63598 -10.9921,-58.75504 -11.6774,-13.28207 -26.1924,-20.07311 -56.6353,-26.49763 -35.4282,-7.47662 -39.5672,-8.92643 -42.8185,-14.99872 -1.6499,-3.08112 -1.6817,-3.58828 -0.4476,-7.13122 2.9994,-8.61107 12.2057,-11.01016 39.6741,-10.33887 11.9019,0.29089 21.9305,1.01668 26.9931,1.95365 9.4061,1.74082 23.4314,5.19929 28.8654,7.11792 l 3.804,1.34305 0,-28.06137 0,-28.06141 -8.2792,-1.52421 c -18.0873,-3.32992 -34.7733,-5.01464 -54.8219,-5.53511 -39.8331,-1.03414 -65.4153,3.28134 -87.7149,14.79676 -6.2918,3.24903 -9.7211,5.82543 -15.6634,11.7677 -8.5555,8.55552 -12.3317,15.12728 -15.2508,26.54096 -2.1493,8.40347 -2.3375,23.81866 -0.4024,32.9542 2.6592,12.55316 10.0908,24.53884 19.8523,32.01764 12.961,9.93017 24.679,14.20833 59.3182,21.65691 19.675,4.23081 25.3035,6.18778 29.628,10.30158 3.9056,3.71535 4.5526,7.08859 2.2233,11.59284 -1.6591,3.20828 -4.222,4.85761 -11.329,7.29054 -4.7094,1.61213 -8.4336,2.03898 -21.0328,2.41076 -23.2901,0.68725 -45.2859,-2.49212 -66.6498,-9.63385 -5.8559,-1.95756 -10.8554,-3.55919 -11.11,-3.55919 -0.2545,0 -0.4628,12.63196 -0.4628,28.07104 l 0,28.07107 9.1155,1.94101 c 13.025,2.77346 28.2101,5.15191 40.1122,6.28277 5.6612,0.5379 11.7028,1.13615 13.4258,1.32945 1.723,0.19333 14.0075,0.23898 27.299,0.10174 17.7882,-0.18378 26.2925,-0.64232 32.2218,-1.73699 z m -630.56291,-110.15509 0,-108.7486 -41.61984,0 -41.61984,0 0,108.7486 0,108.7486 41.61984,0 41.61984,0 0,-108.7486 z m 119.93676,77.48936 0,-31.25924 38.26339,-0.346 c 37.80106,-0.34179 38.36616,-0.37386 46.76636,-2.65406 10.3886,-2.81991 17.0034,-5.69646 23.9547,-10.41695 13.9692,-9.48628 22.7334,-22.11988 27.5933,-39.77532 2.7768,-10.08814 3.9008,-31.10544 2.2334,-41.76185 -5.1408,-32.85395 -28.2537,-53.87826 -64.96951,-59.09832 -3.74996,-0.53315 -36.53983,-0.89788 -81.67333,-0.9085 l -75.40801,-0.0179 0,108.7486 0,108.74861 41.61983,0 41.61987,0 0,-31.25925 z m -1.7901,-108.81612 0,-26.40398 15.15731,0 c 22.12108,0 31.79446,2.51724 37.99614,9.88753 6.75476,8.02756 6.32953,24.44696 -0.85424,32.98439 -6.25124,7.42916 -15.53529,9.89791 -37.30712,9.9205 l -14.99209,0.0149 0,-26.40398 z m 207.54805,116.8 6.6093,-23.26725 35.1288,0 35.1289,0 2.2789,7.38417 c 1.2534,4.06129 4.4223,14.5306 7.0421,23.26513 l 4.7632,15.88099 43.7307,0.006 43.7308,0.006 -0.5223,-2.01387 c -0.2873,-1.10762 -17.6157,-49.9438 -38.5077,-108.52484 l -37.9855,-106.51098 -57.5842,-0.23032 -57.5842,-0.23033 -36.1787,103.16099 c -19.8983,56.73854 -37.1131,105.67831 -38.255,108.75504 l -2.0762,5.59407 41.8359,-0.006 41.8359,-0.003 6.6093,-23.26725 z m 29.8362,-110.75841 c 6.4455,-19.07576 11.9658,-34.97254 12.2671,-35.3262 0.3015,-0.35363 5.8433,15.2538 12.3151,34.6832 l 11.767,35.3262 -24.0341,0 -24.0342,0 11.7191,-34.6832 z m 507.2976,57.51724 0,-76.51653 35.5782,-0.23391 35.5783,-0.2339 0,-31.77429 0,-31.77428 -113.0001,-0.22704 -113.0001,-0.22735 0,32.22527 0,32.22524 35.3545,0 35.3544,0 0,76.5268 0,76.52679 42.0674,0 42.0674,0 0,-76.51653 z M 429.46584,394.0659 c -65.91848,-11.23942 -114.07225,-45.0327 -128.25981,-90.00995 -4.03876,-12.80379 -4.20763,-16.75603 -4.20763,-98.4834 l 0,-77.35707 72.9466,0 72.94659,0 0,133.81001 0,133.81001 -2.01386,-0.0835 c -1.10763,-0.0459 -6.24298,-0.80468 -11.41189,-1.686 z"
       id="path4147"
       inkscape:connector-curvature="0" />
  </g>
</svg>
