<?xml version="1.0" encoding="UTF-8" standalone="no"?>
<!-- Created with Inkscape (http://www.inkscape.org/) -->

<svg
   xmlns:dc="http://purl.org/dc/elements/1.1/"
   xmlns:cc="http://creativecommons.org/ns#"
   xmlns:rdf="http://www.w3.org/1999/02/22-rdf-syntax-ns#"
   xmlns:svg="http://www.w3.org/2000/svg"
   xmlns="http://www.w3.org/2000/svg"
   xmlns:sodipodi="http://sodipodi.sourceforge.net/DTD/sodipodi-0.dtd"
   xmlns:inkscape="http://www.inkscape.org/namespaces/inkscape"
   width="285.6738mm"
   height="285.6738mm"
   viewBox="0 0 1012.23 1012.23"
   id="svg2"
   version="1.1"
   inkscape:version="0.91 r13725"
   sodipodi:docname="sokol.svg">
  <defs
     id="defs4">
    <clipPath
       id="clipPath4150"
       clipPathUnits="userSpaceOnUse">
      <path
         inkscape:connector-curvature="0"
         id="path4152"
         d="m 0,1296 1296,0 L 1296,0 0,0 0,1296 Z" />
    </clipPath>
  </defs>
  <sodipodi:namedview
     id="base"
     pagecolor="#ffffff"
     bordercolor="#666666"
     borderopacity="1.0"
     inkscape:pageopacity="0.0"
     inkscape:pageshadow="2"
     inkscape:zoom="0.175"
     inkscape:cx="-312.89434"
     inkscape:cy="163.24679"
     inkscape:document-units="px"
     inkscape:current-layer="layer1"
     showgrid="false"
     fit-margin-top="0"
     fit-margin-left="0"
     fit-margin-right="0"
     fit-margin-bottom="0"
     inkscape:window-width="1855"
     inkscape:window-height="1056"
     inkscape:window-x="65"
     inkscape:window-y="24"
     inkscape:window-maximized="1" />
  <metadata
     id="metadata7">
    <rdf:RDF>
      <cc:Work
         rdf:about="">
        <dc:format>image/svg+xml</dc:format>
        <dc:type
           rdf:resource="http://purl.org/dc/dcmitype/StillImage" />
        <dc:title></dc:title>
      </cc:Work>
    </rdf:RDF>
  </metadata>
  <g
     inkscape:label="Vrstva 1"
     inkscape:groupmode="layer"
     id="layer1"
     transform="translate(742.8767,-26.2472)">
    <g
       transform="matrix(1.25,0,0,-1.25,-1016.1217,1336.3622)"
       inkscape:label="logo-sokol"
       id="g4144">
      <g
         id="g4146">
        <g
           clip-path="url(#clipPath4150)"
           id="g4148">
          <path
             inkscape:connector-curvature="0"
             id="path4154"
             style="fill:#ed1c24;fill-opacity:1;fill-rule:nonzero;stroke:none"
             d="m 623.524,238.308 c 222.912,0 404.856,181.944 404.856,404.927 0,222.985 -181.944,404.857 -404.856,404.857 -223.056,0 -404.928,-181.872 -404.928,-404.857 0,-222.983 181.872,-404.927 404.928,-404.927" />
          <path
             inkscape:connector-curvature="0"
             id="path4156"
             style="fill:#ffffff;fill-opacity:1;fill-rule:nonzero;stroke:none"
             d="m 623.092,253.788 c 214.632,0 389.808,175.105 389.808,389.88 0,214.632 -175.176,389.736 -389.808,389.736 -214.704,0 -389.88,-175.104 -389.88,-389.736 0,-214.775 175.176,-389.88 389.88,-389.88" />
          <path
             inkscape:connector-curvature="0"
             id="path4158"
             style="fill:#ed1c24;fill-opacity:1;fill-rule:nonzero;stroke:none"
             d="m 624.604,285.181 c 198,0 359.496,161.495 359.496,359.495 0,198 -161.496,359.496 -359.496,359.496 -198.072,0 -359.568,-161.496 -359.568,-359.496 0,-198 161.496,-359.495 359.568,-359.495" />
          <path
             inkscape:connector-curvature="0"
             id="path4160"
             style="fill:#ffffff;fill-opacity:1;fill-rule:nonzero;stroke:none"
             d="m 492.124,679.74 c -20.088,14.256 -33.336,33.048 -40.392,52.56 -19.08,52.272 -13.752,109.296 15.984,150.984 52.056,73.008 169.344,104.976 284.328,14.616 l 0,23.4 60.84,-0.432 0,-164.232 70.704,-0.072 -0.432,-42.552 -131.112,0.072 0,100.728 c -4.536,3.456 -8.136,6.048 -12.024,10.296 -24.48,26.784 -56.592,49.968 -90.72,56.088 -49.824,8.856 -98.928,-11.52 -106.2,-66.384 -1.584,-12.096 1.224,-30.6 4.968,-43.704 -20.16,-18.36 -47.016,-39.24 -55.944,-91.368" />
          <path
             inkscape:connector-curvature="0"
             id="path4162"
             style="fill:#ed1c24;fill-opacity:1;fill-rule:nonzero;stroke:none"
             d="m 743.26,908.484 8.568,-9.504 0,-88.488 -8.424,9.072 -0.144,88.92 z" />
          <path
             inkscape:connector-curvature="0"
             id="path4164"
             style="fill:#ffffff;fill-opacity:1;fill-rule:nonzero;stroke:none"
             d="m 499.468,653.964 c 0,18.648 3.528,36.504 10.728,53.424 7.2,16.992 17.64,32.184 31.248,45.576 13.176,12.888 27.648,22.536 43.416,29.088 15.768,6.48 32.904,9.792 51.336,9.792 18.648,0 36.072,-3.312 52.128,-9.864 15.985,-6.552 30.672,-16.416 43.92,-29.376 13.68,-13.392 23.903,-28.368 30.744,-45 6.912,-16.632 10.368,-34.488 10.368,-53.64 0,-18.937 -2.952,-36.432 -8.928,-52.344 -5.832,-15.912 -14.688,-30.385 -26.424,-43.345 -13.68,-15.046 -29.088,-26.351 -46.296,-33.911 -17.208,-7.633 -35.855,-11.448 -55.944,-11.448 -38.52,0 -70.92,13.536 -97.056,40.607 -26.208,27.145 -39.24,60.624 -39.24,100.441" />
          <path
             inkscape:connector-curvature="0"
             id="path4166"
             style="fill:#ed1c24;fill-opacity:1;fill-rule:nonzero;stroke:none"
             d="m 553.468,652.812 c 0,-23.976 7.848,-44.28 23.544,-60.624 15.696,-16.272 35.064,-24.48 58.104,-24.48 22.392,0 41.4,8.28 56.88,24.769 15.552,16.559 23.256,36.863 23.256,60.911 0,22.536 -7.992,41.904 -23.904,58.176 -15.984,16.272 -35.208,24.408 -57.6,24.408 -9.144,0 -18,-1.584 -26.424,-4.68 -8.496,-3.168 -16.344,-7.776 -23.544,-13.824 -9.432,-7.92 -16.848,-17.712 -22.248,-29.232 -5.328,-11.52 -8.064,-23.328 -8.064,-35.424" />
          <path
             inkscape:connector-curvature="0"
             id="path4168"
             style="fill:#ffffff;fill-opacity:1;fill-rule:nonzero;stroke:none"
             d="M 615.82,726.036 C 758.164,652.884 834.916,631.86 835.779,522.275 831.604,407.652 720.22,329.893 613.588,357.468 561.028,371.076 512.5,400.74 474.772,459.132 c -0.864,1.368 -0.648,0.576 -5.976,1.296 l 0.864,-73.728 -62.064,0.504 -0.504,220.609 63.072,0.287 0.936,-85.176 50.184,60.408 27.36,-35.712 -29.52,-34.559 C 607.9,350.7 722.092,424.068 732.964,489.516 c 0.65,3.877 0.703,7.561 0.746,11.313 0.042,0.629 -0.108,1.274 -0.086,1.898 0.024,0.705 -0.083,0.378 -0.087,1.078 -0.006,1.182 -0.156,2.109 -0.258,3.278 -0.041,0.462 -0.216,1.769 -0.474,2.847 -0.076,0.455 -0.259,1.638 -0.346,2.026 -1.586,7.893 -7.303,20.888 -13.286,26.325 -0.033,0.032 -0.03,0.111 -0.064,0.141 -31.755,37.195 -99.238,65.476 -153.977,87.534 -13.464,56.304 22.464,92.52 50.688,100.08" />
          <path
             inkscape:connector-curvature="0"
             id="path4170"
             style="fill:#ed1c24;fill-opacity:1;fill-rule:nonzero;stroke:none"
             d="m 710.716,678.588 -8.208,12.96 c 20.376,-10.584 56.376,-28.728 72.935,-41.976 l -1.223,-8.136 c -16.2,12.96 -47.808,29.016 -63.504,37.152" />
          <path
             inkscape:connector-curvature="0"
             id="path4172"
             style="fill:#ed1c24;fill-opacity:1;fill-rule:nonzero;stroke:none"
             d="m 658.111,573.248 10.739,4.62 c 13.406,-7.923 45.006,-30.303 52.492,-41.956 l -7.412,-6.258 c -12.222,15.043 -35.457,32.644 -55.819,43.594" />
        </g>
      </g>
    </g>
  </g>
</svg>
